<svg xmlns="http://www.w3.org/2000/svg" viewBox="0 0 2400 800" width="2400" height="800" preserveAspectRatio="xMidYMid slice" role="presentation">
<defs>
<linearGradient id="g2_0" gradientTransform="rotate(144 0.5 0.5)"><stop offset="0%" stop-color="rgb(225,225,225)"/><stop offset="100%" stop-color="rgb(137,137,137)"/></linearGradient>
<linearGradient id="g2_1" gradientTransform="rotate(75 0.5 0.5)"><stop offset="0%" stop-color="rgb(222,222,222)"/><stop offset="100%" stop-color="rgb(133,133,133)"/></linearGradient>
<linearGradient id="g2_2" gradientTransform="rotate(25 0.5 0.5)"><stop offset="0%" stop-color="rgb(216,216,216)"/><stop offset="100%" stop-color="rgb(139,139,139)"/></linearGradient>
<linearGradient id="g2_3" gradientTransform="rotate(155 0.5 0.5)"><stop offset="0%" stop-color="rgb(218,218,218)"/><stop offset="100%" stop-color="rgb(97,97,97)"/></linearGradient>
<linearGradient id="g2_4" gradientTransform="rotate(111 0.5 0.5)"><stop offset="0%" stop-color="rgb(209,209,209)"/><stop offset="100%" stop-color="rgb(111,111,111)"/></linearGradient>
<linearGradient id="g2_5" gradientTransform="rotate(76 0.5 0.5)"><stop offset="0%" stop-color="rgb(199,199,199)"/><stop offset="100%" stop-color="rgb(122,122,122)"/></linearGradient>
<linearGradient id="g2_6" gradientTransform="rotate(170 0.5 0.5)"><stop offset="0%" stop-color="rgb(229,229,229)"/><stop offset="100%" stop-color="rgb(119,119,119)"/></linearGradient>
<filter id="soft2" x="-8%" y="-8%" width="116%" height="116%"><feGaussianBlur stdDeviation="3"/></filter>
</defs>
<rect width="2400" height="800" fill="rgb(246,246,247)"/>
<g filter="url(#soft2)">
<path d="M -200 499.5 C -20 499.5, 20 489.2, 200 489.2 C 380 489.2, 420 583.5, 600 583.5 C 780 583.5, 820 670.3, 1000 670.3 C 1180 670.3, 1220 581.5, 1400 581.5 C 1580 581.5, 1620 465.6, 1800 465.6 C 1980 465.6, 2020 472, 2200 472 C 2380 472, 2420 667.2, 2600 667.2 L 2600 847.1 C 2420 847.1, 2380 651.9, 2200 651.9 C 2020 651.9, 1980 645.4, 1800 645.4 C 1620 645.4, 1580 761.4, 1400 761.4 C 1220 761.4, 1180 850.2, 1000 850.2 C 820 850.2, 780 763.4, 600 763.4 C 420 763.4, 380 669.1, 200 669.1 C 20 669.1, -20 679.4, -200 679.4 Z" fill="url(#g2_0)" opacity="0.20"/>
<path d="M -200 507.1 C 10 507.1, 56.7 429.8, 266.7 429.8 C 476.7 429.8, 523.3 743, 733.3 743 C 943.3 743, 990 791.8, 1200 791.8 C 1410 791.8, 1456.7 605, 1666.7 605 C 1876.7 605, 1923.3 442, 2133.3 442 C 2343.3 442, 2390 613.9, 2600 613.9 L 2600 718.1 C 2390 718.1, 2343.3 546.2, 2133.3 546.2 C 1923.3 546.2, 1876.7 709.3, 1666.7 709.3 C 1456.7 709.3, 1410 896.1, 1200 896.1 C 990 896.1, 943.3 847.2, 733.3 847.2 C 523.3 847.2, 476.7 534, 266.7 534 C 56.7 534, 10 611.4, -200 611.4 Z" fill="url(#g2_1)" opacity="0.20"/>
<path d="M -200 83.2 C -20 83.2, 20 141.1, 200 141.1 C 380 141.1, 420 -17.6, 600 -17.6 C 780 -17.6, 820 -286.3, 1000 -286.3 C 1180 -286.3, 1220 -61.4, 1400 -61.4 C 1580 -61.4, 1620 180.6, 1800 180.6 C 1980 180.6, 2020 145.6, 2200 145.6 C 2380 145.6, 2420 -77.4, 2600 -77.4 L 2600 38.5 C 2420 38.5, 2380 261.4, 2200 261.4 C 2020 261.4, 1980 296.5, 1800 296.5 C 1620 296.5, 1580 54.4, 1400 54.4 C 1220 54.4, 1180 -170.4, 1000 -170.4 C 820 -170.4, 780 98.2, 600 98.2 C 420 98.2, 380 257, 200 257 C 20 257, -20 199, -200 199 Z" fill="url(#g2_2)" opacity="0.30"/>
<path d="M -200 819.3 C 10 819.3, 56.7 911.4, 266.7 911.4 C 476.7 911.4, 523.3 596.6, 733.3 596.6 C 943.3 596.6, 990 422.1, 1200 422.1 C 1410 422.1, 1456.7 766.8, 1666.7 766.8 C 1876.7 766.8, 1923.3 860.9, 2133.3 860.9 C 2343.3 860.9, 2390 685.2, 2600 685.2 L 2600 802.9 C 2390 802.9, 2343.3 978.7, 2133.3 978.7 C 1923.3 978.7, 1876.7 884.5, 1666.7 884.5 C 1456.7 884.5, 1410 539.8, 1200 539.8 C 990 539.8, 943.3 714.3, 733.3 714.3 C 523.3 714.3, 476.7 1029.1, 266.7 1029.1 C 56.7 1029.1, 10 937, -200 937 Z" fill="url(#g2_3)" opacity="0.18"/>
<path d="M -200 -168.5 C 52 -168.5, 108 119.5, 360 119.5 C 612 119.5, 668 182.8, 920 182.8 C 1172 182.8, 1228 -9.6, 1480 -9.6 C 1732 -9.6, 1788 -334.6, 2040 -334.6 C 2292 -334.6, 2348 -69.5, 2600 -69.5 L 2600 28 C 2348 28, 2292 -237.1, 2040 -237.1 C 1788 -237.1, 1732 87.9, 1480 87.9 C 1228 87.9, 1172 280.3, 920 280.3 C 668 280.3, 612 217, 360 217 C 108 217, 52 -71, -200 -71 Z" fill="url(#g2_4)" opacity="0.18"/>
<path d="M -200 828.4 C -20 828.4, 20 988.7, 200 988.7 C 380 988.7, 420 725.7, 600 725.7 C 780 725.7, 820 442.6, 1000 442.6 C 1180 442.6, 1220 554.8, 1400 554.8 C 1580 554.8, 1620 962.5, 1800 962.5 C 1980 962.5, 2020 1029.6, 2200 1029.6 C 2380 1029.6, 2420 570.1, 2600 570.1 L 2600 655.4 C 2420 655.4, 2380 1114.9, 2200 1114.9 C 2020 1114.9, 1980 1047.7, 1800 1047.7 C 1620 1047.7, 1580 640.1, 1400 640.1 C 1220 640.1, 1180 527.9, 1000 527.9 C 820 527.9, 780 811, 600 811 C 420 811, 380 1074, 200 1074 C 20 1074, -20 913.7, -200 913.7 Z" fill="url(#g2_5)" opacity="0.34"/>
<path d="M -200 131.7 C 52 131.7, 108 645.6, 360 645.6 C 612 645.6, 668 421.2, 920 421.2 C 1172 421.2, 1228 -86.3, 1480 -86.3 C 1732 -86.3, 1788 -252.3, 2040 -252.3 C 2292 -252.3, 2348 370.9, 2600 370.9 L 2600 523 C 2348 523, 2292 -100.2, 2040 -100.2 C 1788 -100.2, 1732 65.8, 1480 65.8 C 1228 65.8, 1172 573.3, 920 573.3 C 668 573.3, 612 797.7, 360 797.7 C 108 797.7, 52 283.8, -200 283.8 Z" fill="url(#g2_6)" opacity="0.33"/>
<g><path d="M -200 285.2 C 10 285.2, 56.7 224.8, 266.7 224.8 C 476.7 224.8, 523.3 382.8, 733.3 382.8 C 943.3 382.8, 990 664.2, 1200 664.2 C 1410 664.2, 1456.7 539.1, 1666.7 539.1 C 1876.7 539.1, 1923.3 295.4, 2133.3 295.4 C 2343.3 295.4, 2390 211.9, 2600 211.9" fill="none" stroke="rgb(105,105,113)" stroke-width="1.5" opacity="0.12"/><path d="M -200 297.6 C 10 297.6, 56.7 237.2, 266.7 237.2 C 476.7 237.2, 523.3 395.2, 733.3 395.2 C 943.3 395.2, 990 676.6, 1200 676.6 C 1410 676.6, 1456.7 551.5, 1666.7 551.5 C 1876.7 551.5, 1923.3 307.8, 2133.3 307.8 C 2343.3 307.8, 2390 224.3, 2600 224.3" fill="none" stroke="rgb(105,105,113)" stroke-width="1.4" opacity="0.17"/><path d="M -200 310 C 10 310, 56.7 249.6, 266.7 249.6 C 476.7 249.6, 523.3 407.6, 733.3 407.6 C 943.3 407.6, 990 689, 1200 689 C 1410 689, 1456.7 563.9, 1666.7 563.9 C 1876.7 563.9, 1923.3 320.2, 2133.3 320.2 C 2343.3 320.2, 2390 236.7, 2600 236.7" fill="none" stroke="rgb(105,105,113)" stroke-width="2.1" opacity="0.22"/><path d="M -200 322.4 C 10 322.4, 56.7 262, 266.7 262 C 476.7 262, 523.3 420, 733.3 420 C 943.3 420, 990 701.4, 1200 701.4 C 1410 701.4, 1456.7 576.3, 1666.7 576.3 C 1876.7 576.3, 1923.3 332.6, 2133.3 332.6 C 2343.3 332.6, 2390 249.1, 2600 249.1" fill="none" stroke="rgb(105,105,113)" stroke-width="1.7" opacity="0.28"/><path d="M -200 334.8 C 10 334.8, 56.7 274.4, 266.7 274.4 C 476.7 274.4, 523.3 432.5, 733.3 432.5 C 943.3 432.5, 990 713.8, 1200 713.8 C 1410 713.8, 1456.7 588.7, 1666.7 588.7 C 1876.7 588.7, 1923.3 345, 2133.3 345 C 2343.3 345, 2390 261.6, 2600 261.6" fill="none" stroke="rgb(105,105,113)" stroke-width="1.0" opacity="0.33"/><path d="M -200 347.2 C 10 347.2, 56.7 286.8, 266.7 286.8 C 476.7 286.8, 523.3 444.9, 733.3 444.9 C 943.3 444.9, 990 726.2, 1200 726.2 C 1410 726.2, 1456.7 601.1, 1666.7 601.1 C 1876.7 601.1, 1923.3 357.4, 2133.3 357.4 C 2343.3 357.4, 2390 274, 2600 274" fill="none" stroke="rgb(105,105,113)" stroke-width="1.4" opacity="0.38"/><path d="M -200 359.6 C 10 359.6, 56.7 299.2, 266.7 299.2 C 476.7 299.2, 523.3 457.3, 733.3 457.3 C 943.3 457.3, 990 738.6, 1200 738.6 C 1410 738.6, 1456.7 613.5, 1666.7 613.5 C 1876.7 613.5, 1923.3 369.8, 2133.3 369.8 C 2343.3 369.8, 2390 286.4, 2600 286.4" fill="none" stroke="rgb(105,105,113)" stroke-width="1.0" opacity="0.43"/><path d="M -200 372 C 10 372, 56.7 311.6, 266.7 311.6 C 476.7 311.6, 523.3 469.7, 733.3 469.7 C 943.3 469.7, 990 751, 1200 751 C 1410 751, 1456.7 625.9, 1666.7 625.9 C 1876.7 625.9, 1923.3 382.2, 2133.3 382.2 C 2343.3 382.2, 2390 298.8, 2600 298.8" fill="none" stroke="rgb(105,105,113)" stroke-width="1.5" opacity="0.43"/><path d="M -200 384.5 C 10 384.5, 56.7 324, 266.7 324 C 476.7 324, 523.3 482.1, 733.3 482.1 C 943.3 482.1, 990 763.4, 1200 763.4 C 1410 763.4, 1456.7 638.3, 1666.7 638.3 C 1876.7 638.3, 1923.3 394.6, 2133.3 394.6 C 2343.3 394.6, 2390 311.2, 2600 311.2" fill="none" stroke="rgb(105,105,113)" stroke-width="1.9" opacity="0.38"/><path d="M -200 396.9 C 10 396.9, 56.7 336.4, 266.7 336.4 C 476.7 336.4, 523.3 494.5, 733.3 494.5 C 943.3 494.5, 990 775.8, 1200 775.8 C 1410 775.8, 1456.7 650.8, 1666.7 650.8 C 1876.7 650.8, 1923.3 407, 2133.3 407 C 2343.3 407, 2390 323.6, 2600 323.6" fill="none" stroke="rgb(105,105,113)" stroke-width="1.4" opacity="0.33"/><path d="M -200 409.3 C 10 409.3, 56.7 348.8, 266.7 348.8 C 476.7 348.8, 523.3 506.9, 733.3 506.9 C 943.3 506.9, 990 788.3, 1200 788.3 C 1410 788.3, 1456.7 663.2, 1666.7 663.2 C 1876.7 663.2, 1923.3 419.4, 2133.3 419.4 C 2343.3 419.4, 2390 336, 2600 336" fill="none" stroke="rgb(105,105,113)" stroke-width="1.0" opacity="0.28"/><path d="M -200 421.7 C 10 421.7, 56.7 361.3, 266.7 361.3 C 476.7 361.3, 523.3 519.3, 733.3 519.3 C 943.3 519.3, 990 800.7, 1200 800.7 C 1410 800.7, 1456.7 675.6, 1666.7 675.6 C 1876.7 675.6, 1923.3 431.9, 2133.3 431.9 C 2343.3 431.9, 2390 348.4, 2600 348.4" fill="none" stroke="rgb(105,105,113)" stroke-width="1.2" opacity="0.22"/><path d="M -200 434.1 C 10 434.1, 56.7 373.7, 266.7 373.7 C 476.7 373.7, 523.3 531.7, 733.3 531.7 C 943.3 531.7, 990 813.1, 1200 813.1 C 1410 813.1, 1456.7 688, 1666.7 688 C 1876.7 688, 1923.3 444.3, 2133.3 444.3 C 2343.3 444.3, 2390 360.8, 2600 360.8" fill="none" stroke="rgb(105,105,113)" stroke-width="2.3" opacity="0.17"/></g>
<g><path d="M -200 222.5 C 10 222.5, 56.7 394.3, 266.7 394.3 C 476.7 394.3, 523.3 524.7, 733.3 524.7 C 943.3 524.7, 990 456.7, 1200 456.7 C 1410 456.7, 1456.7 306.6, 1666.7 306.6 C 1876.7 306.6, 1923.3 286.1, 2133.3 286.1 C 2343.3 286.1, 2390 428.6, 2600 428.6" fill="none" stroke="rgb(103,103,111)" stroke-width="1.6" opacity="0.12"/><path d="M -200 232.8 C 10 232.8, 56.7 404.6, 266.7 404.6 C 476.7 404.6, 523.3 535, 733.3 535 C 943.3 535, 990 467, 1200 467 C 1410 467, 1456.7 316.9, 1666.7 316.9 C 1876.7 316.9, 1923.3 296.4, 2133.3 296.4 C 2343.3 296.4, 2390 438.9, 2600 438.9" fill="none" stroke="rgb(103,103,111)" stroke-width="1.2" opacity="0.18"/><path d="M -200 243.1 C 10 243.1, 56.7 414.9, 266.7 414.9 C 476.7 414.9, 523.3 545.3, 733.3 545.3 C 943.3 545.3, 990 477.3, 1200 477.3 C 1410 477.3, 1456.7 327.2, 1666.7 327.2 C 1876.7 327.2, 1923.3 306.7, 2133.3 306.7 C 2343.3 306.7, 2390 449.2, 2600 449.2" fill="none" stroke="rgb(103,103,111)" stroke-width="1.4" opacity="0.23"/><path d="M -200 253.4 C 10 253.4, 56.7 425.2, 266.7 425.2 C 476.7 425.2, 523.3 555.6, 733.3 555.6 C 943.3 555.6, 990 487.6, 1200 487.6 C 1410 487.6, 1456.7 337.5, 1666.7 337.5 C 1876.7 337.5, 1923.3 317, 2133.3 317 C 2343.3 317, 2390 459.6, 2600 459.6" fill="none" stroke="rgb(103,103,111)" stroke-width="2.2" opacity="0.29"/><path d="M -200 263.7 C 10 263.7, 56.7 435.5, 266.7 435.5 C 476.7 435.5, 523.3 565.9, 733.3 565.9 C 943.3 565.9, 990 497.9, 1200 497.9 C 1410 497.9, 1456.7 347.8, 1666.7 347.8 C 1876.7 347.8, 1923.3 327.3, 2133.3 327.3 C 2343.3 327.3, 2390 469.9, 2600 469.9" fill="none" stroke="rgb(103,103,111)" stroke-width="2.1" opacity="0.35"/><path d="M -200 274 C 10 274, 56.7 445.8, 266.7 445.8 C 476.7 445.8, 523.3 576.3, 733.3 576.3 C 943.3 576.3, 990 508.2, 1200 508.2 C 1410 508.2, 1456.7 358.1, 1666.7 358.1 C 1876.7 358.1, 1923.3 337.6, 2133.3 337.6 C 2343.3 337.6, 2390 480.2, 2600 480.2" fill="none" stroke="rgb(103,103,111)" stroke-width="2.1" opacity="0.40"/><path d="M -200 284.3 C 10 284.3, 56.7 456.1, 266.7 456.1 C 476.7 456.1, 523.3 586.6, 733.3 586.6 C 943.3 586.6, 990 518.5, 1200 518.5 C 1410 518.5, 1456.7 368.4, 1666.7 368.4 C 1876.7 368.4, 1923.3 347.9, 2133.3 347.9 C 2343.3 347.9, 2390 490.5, 2600 490.5" fill="none" stroke="rgb(103,103,111)" stroke-width="2.2" opacity="0.46"/><path d="M -200 294.6 C 10 294.6, 56.7 466.4, 266.7 466.4 C 476.7 466.4, 523.3 596.9, 733.3 596.9 C 943.3 596.9, 990 528.8, 1200 528.8 C 1410 528.8, 1456.7 378.7, 1666.7 378.7 C 1876.7 378.7, 1923.3 358.2, 2133.3 358.2 C 2343.3 358.2, 2390 500.8, 2600 500.8" fill="none" stroke="rgb(103,103,111)" stroke-width="1.3" opacity="0.40"/><path d="M -200 304.9 C 10 304.9, 56.7 476.7, 266.7 476.7 C 476.7 476.7, 523.3 607.2, 733.3 607.2 C 943.3 607.2, 990 539.1, 1200 539.1 C 1410 539.1, 1456.7 389, 1666.7 389 C 1876.7 389, 1923.3 368.5, 2133.3 368.5 C 2343.3 368.5, 2390 511.1, 2600 511.1" fill="none" stroke="rgb(103,103,111)" stroke-width="2.4" opacity="0.35"/><path d="M -200 315.2 C 10 315.2, 56.7 487, 266.7 487 C 476.7 487, 523.3 617.5, 733.3 617.5 C 943.3 617.5, 990 549.4, 1200 549.4 C 1410 549.4, 1456.7 399.4, 1666.7 399.4 C 1876.7 399.4, 1923.3 378.8, 2133.3 378.8 C 2343.3 378.8, 2390 521.4, 2600 521.4" fill="none" stroke="rgb(103,103,111)" stroke-width="1.8" opacity="0.29"/><path d="M -200 325.5 C 10 325.5, 56.7 497.3, 266.7 497.3 C 476.7 497.3, 523.3 627.8, 733.3 627.8 C 943.3 627.8, 990 559.7, 1200 559.7 C 1410 559.7, 1456.7 409.7, 1666.7 409.7 C 1876.7 409.7, 1923.3 389.1, 2133.3 389.1 C 2343.3 389.1, 2390 531.7, 2600 531.7" fill="none" stroke="rgb(103,103,111)" stroke-width="2.1" opacity="0.23"/><path d="M -200 335.8 C 10 335.8, 56.7 507.7, 266.7 507.7 C 476.7 507.7, 523.3 638.1, 733.3 638.1 C 943.3 638.1, 990 570, 1200 570 C 1410 570, 1456.7 420, 1666.7 420 C 1876.7 420, 1923.3 399.4, 2133.3 399.4 C 2343.3 399.4, 2390 542, 2600 542" fill="none" stroke="rgb(103,103,111)" stroke-width="1.0" opacity="0.18"/></g>
<g><path d="M -200 694.3 C 52 694.3, 108 467.6, 360 467.6 C 612 467.6, 668 292.7, 920 292.7 C 1172 292.7, 1228 682.5, 1480 682.5 C 1732 682.5, 1788 779.1, 2040 779.1 C 2292 779.1, 2348 654.2, 2600 654.2" fill="none" stroke="rgb(109,109,117)" stroke-width="2.0" opacity="0.12"/><path d="M -200 708.4 C 52 708.4, 108 481.7, 360 481.7 C 612 481.7, 668 306.8, 920 306.8 C 1172 306.8, 1228 696.6, 1480 696.6 C 1732 696.6, 1788 793.2, 2040 793.2 C 2292 793.2, 2348 668.3, 2600 668.3" fill="none" stroke="rgb(109,109,117)" stroke-width="2.3" opacity="0.16"/><path d="M -200 722.5 C 52 722.5, 108 495.8, 360 495.8 C 612 495.8, 668 320.9, 920 320.9 C 1172 320.9, 1228 710.7, 1480 710.7 C 1732 710.7, 1788 807.2, 2040 807.2 C 2292 807.2, 2348 682.4, 2600 682.4" fill="none" stroke="rgb(109,109,117)" stroke-width="1.7" opacity="0.21"/><path d="M -200 736.6 C 52 736.6, 108 509.9, 360 509.9 C 612 509.9, 668 335, 920 335 C 1172 335, 1228 724.8, 1480 724.8 C 1732 724.8, 1788 821.3, 2040 821.3 C 2292 821.3, 2348 696.5, 2600 696.5" fill="none" stroke="rgb(109,109,117)" stroke-width="1.9" opacity="0.25"/><path d="M -200 750.7 C 52 750.7, 108 524, 360 524 C 612 524, 668 349.1, 920 349.1 C 1172 349.1, 1228 738.9, 1480 738.9 C 1732 738.9, 1788 835.4, 2040 835.4 C 2292 835.4, 2348 710.6, 2600 710.6" fill="none" stroke="rgb(109,109,117)" stroke-width="2.4" opacity="0.29"/><path d="M -200 764.8 C 52 764.8, 108 538.1, 360 538.1 C 612 538.1, 668 363.2, 920 363.2 C 1172 363.2, 1228 753, 1480 753 C 1732 753, 1788 849.5, 2040 849.5 C 2292 849.5, 2348 724.7, 2600 724.7" fill="none" stroke="rgb(109,109,117)" stroke-width="1.5" opacity="0.33"/><path d="M -200 778.9 C 52 778.9, 108 552.2, 360 552.2 C 612 552.2, 668 377.3, 920 377.3 C 1172 377.3, 1228 767.1, 1480 767.1 C 1732 767.1, 1788 863.6, 2040 863.6 C 2292 863.6, 2348 738.8, 2600 738.8" fill="none" stroke="rgb(109,109,117)" stroke-width="1.4" opacity="0.38"/><path d="M -200 793 C 52 793, 108 566.3, 360 566.3 C 612 566.3, 668 391.4, 920 391.4 C 1172 391.4, 1228 781.2, 1480 781.2 C 1732 781.2, 1788 877.7, 2040 877.7 C 2292 877.7, 2348 752.9, 2600 752.9" fill="none" stroke="rgb(109,109,117)" stroke-width="1.7" opacity="0.42"/><path d="M -200 807.1 C 52 807.1, 108 580.4, 360 580.4 C 612 580.4, 668 405.5, 920 405.5 C 1172 405.5, 1228 795.3, 1480 795.3 C 1732 795.3, 1788 891.8, 2040 891.8 C 2292 891.8, 2348 767, 2600 767" fill="none" stroke="rgb(109,109,117)" stroke-width="1.9" opacity="0.46"/><path d="M -200 821.2 C 52 821.2, 108 594.5, 360 594.5 C 612 594.5, 668 419.6, 920 419.6 C 1172 419.6, 1228 809.4, 1480 809.4 C 1732 809.4, 1788 905.9, 2040 905.9 C 2292 905.9, 2348 781.1, 2600 781.1" fill="none" stroke="rgb(109,109,117)" stroke-width="2.2" opacity="0.42"/><path d="M -200 835.3 C 52 835.3, 108 608.6, 360 608.6 C 612 608.6, 668 433.7, 920 433.7 C 1172 433.7, 1228 823.5, 1480 823.5 C 1732 823.5, 1788 920, 2040 920 C 2292 920, 2348 795.2, 2600 795.2" fill="none" stroke="rgb(109,109,117)" stroke-width="2.1" opacity="0.38"/><path d="M -200 849.4 C 52 849.4, 108 622.7, 360 622.7 C 612 622.7, 668 447.8, 920 447.8 C 1172 447.8, 1228 837.6, 1480 837.6 C 1732 837.6, 1788 934.1, 2040 934.1 C 2292 934.1, 2348 809.3, 2600 809.3" fill="none" stroke="rgb(109,109,117)" stroke-width="2.0" opacity="0.33"/><path d="M -200 863.5 C 52 863.5, 108 636.8, 360 636.8 C 612 636.8, 668 461.9, 920 461.9 C 1172 461.9, 1228 851.7, 1480 851.7 C 1732 851.7, 1788 948.2, 2040 948.2 C 2292 948.2, 2348 823.4, 2600 823.4" fill="none" stroke="rgb(109,109,117)" stroke-width="1.2" opacity="0.29"/><path d="M -200 877.5 C 52 877.5, 108 650.9, 360 650.9 C 612 650.9, 668 476, 920 476 C 1172 476, 1228 865.8, 1480 865.8 C 1732 865.8, 1788 962.3, 2040 962.3 C 2292 962.3, 2348 837.5, 2600 837.5" fill="none" stroke="rgb(109,109,117)" stroke-width="2.3" opacity="0.25"/><path d="M -200 891.6 C 52 891.6, 108 665, 360 665 C 612 665, 668 490.1, 920 490.1 C 1172 490.1, 1228 879.9, 1480 879.9 C 1732 879.9, 1788 976.4, 2040 976.4 C 2292 976.4, 2348 851.6, 2600 851.6" fill="none" stroke="rgb(109,109,117)" stroke-width="1.2" opacity="0.21"/><path d="M -200 905.7 C 52 905.7, 108 679.1, 360 679.1 C 612 679.1, 668 504.2, 920 504.2 C 1172 504.2, 1228 894, 1480 894 C 1732 894, 1788 990.5, 2040 990.5 C 2292 990.5, 2348 865.7, 2600 865.7" fill="none" stroke="rgb(109,109,117)" stroke-width="2.2" opacity="0.16"/></g>
<circle cx="430" cy="16" r="10.5" fill="rgb(110,110,118)" opacity="0.23"/>
<circle cx="432" cy="611" r="7.7" fill="rgb(110,110,118)" opacity="0.35"/>
<circle cx="1443" cy="334" r="9.1" fill="rgb(110,110,118)" opacity="0.22"/>
<circle cx="1182" cy="197" r="3.6" fill="rgb(110,110,118)" opacity="0.31"/>
</g>
</svg>
