<svg xmlns="http://www.w3.org/2000/svg" viewBox="0 0 2400 800" width="2400" height="800" preserveAspectRatio="xMidYMid slice" role="presentation">
<defs>
<linearGradient id="g17_0" gradientTransform="rotate(99 0.5 0.5)"><stop offset="0%" stop-color="rgb(184,184,184)"/><stop offset="100%" stop-color="rgb(103,103,103)"/></linearGradient>
<linearGradient id="g17_1" gradientTransform="rotate(113 0.5 0.5)"><stop offset="0%" stop-color="rgb(188,188,188)"/><stop offset="100%" stop-color="rgb(135,135,135)"/></linearGradient>
<linearGradient id="g17_2" gradientTransform="rotate(54 0.5 0.5)"><stop offset="0%" stop-color="rgb(181,181,181)"/><stop offset="100%" stop-color="rgb(148,148,148)"/></linearGradient>
<linearGradient id="g17_3" gradientTransform="rotate(147 0.5 0.5)"><stop offset="0%" stop-color="rgb(229,229,229)"/><stop offset="100%" stop-color="rgb(137,137,137)"/></linearGradient>
<linearGradient id="g17_4" gradientTransform="rotate(151 0.5 0.5)"><stop offset="0%" stop-color="rgb(225,225,225)"/><stop offset="100%" stop-color="rgb(102,102,102)"/></linearGradient>
<linearGradient id="g17_5" gradientTransform="rotate(22 0.5 0.5)"><stop offset="0%" stop-color="rgb(183,183,183)"/><stop offset="100%" stop-color="rgb(114,114,114)"/></linearGradient>
<linearGradient id="g17_6" gradientTransform="rotate(169 0.5 0.5)"><stop offset="0%" stop-color="rgb(221,221,221)"/><stop offset="100%" stop-color="rgb(132,132,132)"/></linearGradient>
<filter id="soft17" x="-8%" y="-8%" width="116%" height="116%"><feGaussianBlur stdDeviation="3"/></filter>
</defs>
<rect width="2400" height="800" fill="rgb(246,246,247)"/>
<g filter="url(#soft17)">
<path d="M -200 463.2 C -20 463.2, 20 278.2, 200 278.2 C 380 278.2, 420 281.4, 600 281.4 C 780 281.4, 820 451.3, 1000 451.3 C 1180 451.3, 1220 566.3, 1400 566.3 C 1580 566.3, 1620 401.9, 1800 401.9 C 1980 401.9, 2020 239.8, 2200 239.8 C 2380 239.8, 2420 358.3, 2600 358.3 L 2600 514.9 C 2420 514.9, 2380 396.3, 2200 396.3 C 2020 396.3, 1980 558.4, 1800 558.4 C 1620 558.4, 1580 722.9, 1400 722.9 C 1220 722.9, 1180 607.8, 1000 607.8 C 820 607.8, 780 437.9, 600 437.9 C 420 437.9, 380 434.7, 200 434.7 C 20 434.7, -20 619.7, -200 619.7 Z" fill="url(#g17_0)" opacity="0.21"/>
<path d="M -200 410.5 C 115 410.5, 185 75.9, 500 75.9 C 815 75.9, 885 166.6, 1200 166.6 C 1515 166.6, 1585 594, 1900 594 C 2215 594, 2285 620.3, 2600 620.3 L 2600 785.8 C 2285 785.8, 2215 759.5, 1900 759.5 C 1585 759.5, 1515 332.1, 1200 332.1 C 885 332.1, 815 241.3, 500 241.3 C 185 241.3, 115 575.9, -200 575.9 Z" fill="url(#g17_1)" opacity="0.34"/>
<path d="M -200 780.6 C 115 780.6, 185 485, 500 485 C 815 485, 885 263.5, 1200 263.5 C 1515 263.5, 1585 341.7, 1900 341.7 C 2215 341.7, 2285 784.8, 2600 784.8 L 2600 953.6 C 2285 953.6, 2215 510.5, 1900 510.5 C 1585 510.5, 1515 432.3, 1200 432.3 C 885 432.3, 815 653.8, 500 653.8 C 185 653.8, 115 949.4, -200 949.4 Z" fill="url(#g17_2)" opacity="0.30"/>
<path d="M -200 110.5 C 115 110.5, 185 286.1, 500 286.1 C 815 286.1, 885 -3.7, 1200 -3.7 C 1515 -3.7, 1585 -134.7, 1900 -134.7 C 2215 -134.7, 2285 -115, 2600 -115 L 2600 -33.6 C 2285 -33.6, 2215 -53.3, 1900 -53.3 C 1585 -53.3, 1515 77.7, 1200 77.7 C 885 77.7, 815 367.5, 500 367.5 C 185 367.5, 115 191.9, -200 191.9 Z" fill="url(#g17_3)" opacity="0.26"/>
<path d="M -200 377.6 C -20 377.6, 20 433.6, 200 433.6 C 380 433.6, 420 343.6, 600 343.6 C 780 343.6, 820 172.4, 1000 172.4 C 1180 172.4, 1220 294.4, 1400 294.4 C 1580 294.4, 1620 480.9, 1800 480.9 C 1980 480.9, 2020 447.3, 2200 447.3 C 2380 447.3, 2420 262.3, 2600 262.3 L 2600 358.8 C 2420 358.8, 2380 543.8, 2200 543.8 C 2020 543.8, 1980 577.4, 1800 577.4 C 1620 577.4, 1580 390.9, 1400 390.9 C 1220 390.9, 1180 268.9, 1000 268.9 C 820 268.9, 780 440.2, 600 440.2 C 420 440.2, 380 530.1, 200 530.1 C 20 530.1, -20 474.1, -200 474.1 Z" fill="url(#g17_4)" opacity="0.17"/>
<path d="M -200 252.6 C -20 252.6, 20 112.3, 200 112.3 C 380 112.3, 420 -59, 600 -59 C 780 -59, 820 -51.2, 1000 -51.2 C 1180 -51.2, 1220 184.2, 1400 184.2 C 1580 184.2, 1620 198.2, 1800 198.2 C 1980 198.2, 2020 15.8, 2200 15.8 C 2380 15.8, 2420 -89.4, 2600 -89.4 L 2600 -26.2 C 2420 -26.2, 2380 79, 2200 79 C 2020 79, 1980 261.4, 1800 261.4 C 1620 261.4, 1580 247.4, 1400 247.4 C 1220 247.4, 1180 11.9, 1000 11.9 C 820 11.9, 780 4.2, 600 4.2 C 420 4.2, 380 175.5, 200 175.5 C 20 175.5, -20 315.7, -200 315.7 Z" fill="url(#g17_5)" opacity="0.29"/>
<path d="M -200 -13.2 C -20 -13.2, 20 -216, 200 -216 C 380 -216, 420 235.3, 600 235.3 C 780 235.3, 820 430.4, 1000 430.4 C 1180 430.4, 1220 188.4, 1400 188.4 C 1580 188.4, 1620 -139.9, 1800 -139.9 C 1980 -139.9, 2020 -64.1, 2200 -64.1 C 2380 -64.1, 2420 318.2, 2600 318.2 L 2600 547.8 C 2420 547.8, 2380 165.5, 2200 165.5 C 2020 165.5, 1980 89.7, 1800 89.7 C 1620 89.7, 1580 418, 1400 418 C 1220 418, 1180 660.1, 1000 660.1 C 820 660.1, 780 465, 600 465 C 420 465, 380 13.6, 200 13.6 C 20 13.6, -20 216.5, -200 216.5 Z" fill="url(#g17_6)" opacity="0.22"/>
<g><path d="M -200 276.5 C 10 276.5, 56.7 188.9, 266.7 188.9 C 476.7 188.9, 523.3 59.2, 733.3 59.2 C 943.3 59.2, 990 121.2, 1200 121.2 C 1410 121.2, 1456.7 299.2, 1666.7 299.2 C 1876.7 299.2, 1923.3 223.1, 2133.3 223.1 C 2343.3 223.1, 2390 62.9, 2600 62.9" fill="none" stroke="rgb(102,102,110)" stroke-width="1.1" opacity="0.12"/><path d="M -200 287.2 C 10 287.2, 56.7 199.6, 266.7 199.6 C 476.7 199.6, 523.3 69.9, 733.3 69.9 C 943.3 69.9, 990 132, 1200 132 C 1410 132, 1456.7 309.9, 1666.7 309.9 C 1876.7 309.9, 1923.3 233.8, 2133.3 233.8 C 2343.3 233.8, 2390 73.6, 2600 73.6" fill="none" stroke="rgb(102,102,110)" stroke-width="1.6" opacity="0.22"/><path d="M -200 298 C 10 298, 56.7 210.3, 266.7 210.3 C 476.7 210.3, 523.3 80.6, 733.3 80.6 C 943.3 80.6, 990 142.7, 1200 142.7 C 1410 142.7, 1456.7 320.7, 1666.7 320.7 C 1876.7 320.7, 1923.3 244.6, 2133.3 244.6 C 2343.3 244.6, 2390 84.3, 2600 84.3" fill="none" stroke="rgb(102,102,110)" stroke-width="1.8" opacity="0.31"/><path d="M -200 308.7 C 10 308.7, 56.7 221.1, 266.7 221.1 C 476.7 221.1, 523.3 91.4, 733.3 91.4 C 943.3 91.4, 990 153.4, 1200 153.4 C 1410 153.4, 1456.7 331.4, 1666.7 331.4 C 1876.7 331.4, 1923.3 255.3, 2133.3 255.3 C 2343.3 255.3, 2390 95.1, 2600 95.1" fill="none" stroke="rgb(102,102,110)" stroke-width="1.8" opacity="0.41"/><path d="M -200 319.4 C 10 319.4, 56.7 231.8, 266.7 231.8 C 476.7 231.8, 523.3 102.1, 733.3 102.1 C 943.3 102.1, 990 164.2, 1200 164.2 C 1410 164.2, 1456.7 342.1, 1666.7 342.1 C 1876.7 342.1, 1923.3 266, 2133.3 266 C 2343.3 266, 2390 105.8, 2600 105.8" fill="none" stroke="rgb(102,102,110)" stroke-width="1.4" opacity="0.41"/><path d="M -200 330.2 C 10 330.2, 56.7 242.6, 266.7 242.6 C 476.7 242.6, 523.3 112.8, 733.3 112.8 C 943.3 112.8, 990 174.9, 1200 174.9 C 1410 174.9, 1456.7 352.9, 1666.7 352.9 C 1876.7 352.9, 1923.3 276.8, 2133.3 276.8 C 2343.3 276.8, 2390 116.5, 2600 116.5" fill="none" stroke="rgb(102,102,110)" stroke-width="2.0" opacity="0.31"/><path d="M -200 340.9 C 10 340.9, 56.7 253.3, 266.7 253.3 C 476.7 253.3, 523.3 123.6, 733.3 123.6 C 943.3 123.6, 990 185.6, 1200 185.6 C 1410 185.6, 1456.7 363.6, 1666.7 363.6 C 1876.7 363.6, 1923.3 287.5, 2133.3 287.5 C 2343.3 287.5, 2390 127.3, 2600 127.3" fill="none" stroke="rgb(102,102,110)" stroke-width="1.8" opacity="0.22"/></g>
<g><path d="M -200 189.1 C 115 189.1, 185 510.3, 500 510.3 C 815 510.3, 885 584.3, 1200 584.3 C 1515 584.3, 1585 153.5, 1900 153.5 C 2215 153.5, 2285 66.9, 2600 66.9" fill="none" stroke="rgb(98,98,106)" stroke-width="1.4" opacity="0.12"/><path d="M -200 205.4 C 115 205.4, 185 526.6, 500 526.6 C 815 526.6, 885 600.5, 1200 600.5 C 1515 600.5, 1585 169.8, 1900 169.8 C 2215 169.8, 2285 83.2, 2600 83.2" fill="none" stroke="rgb(98,98,106)" stroke-width="1.7" opacity="0.17"/><path d="M -200 221.7 C 115 221.7, 185 542.9, 500 542.9 C 815 542.9, 885 616.8, 1200 616.8 C 1515 616.8, 1585 186, 1900 186 C 2215 186, 2285 99.4, 2600 99.4" fill="none" stroke="rgb(98,98,106)" stroke-width="1.3" opacity="0.22"/><path d="M -200 237.9 C 115 237.9, 185 559.2, 500 559.2 C 815 559.2, 885 633.1, 1200 633.1 C 1515 633.1, 1585 202.3, 1900 202.3 C 2215 202.3, 2285 115.7, 2600 115.7" fill="none" stroke="rgb(98,98,106)" stroke-width="1.0" opacity="0.28"/><path d="M -200 254.2 C 115 254.2, 185 575.4, 500 575.4 C 815 575.4, 885 649.3, 1200 649.3 C 1515 649.3, 1585 218.6, 1900 218.6 C 2215 218.6, 2285 132, 2600 132" fill="none" stroke="rgb(98,98,106)" stroke-width="1.8" opacity="0.33"/><path d="M -200 270.5 C 115 270.5, 185 591.7, 500 591.7 C 815 591.7, 885 665.6, 1200 665.6 C 1515 665.6, 1585 234.8, 1900 234.8 C 2215 234.8, 2285 148.2, 2600 148.2" fill="none" stroke="rgb(98,98,106)" stroke-width="1.3" opacity="0.38"/><path d="M -200 286.7 C 115 286.7, 185 608, 500 608 C 815 608, 885 681.9, 1200 681.9 C 1515 681.9, 1585 251.1, 1900 251.1 C 2215 251.1, 2285 164.5, 2600 164.5" fill="none" stroke="rgb(98,98,106)" stroke-width="2.1" opacity="0.43"/><path d="M -200 303 C 115 303, 185 624.2, 500 624.2 C 815 624.2, 885 698.1, 1200 698.1 C 1515 698.1, 1585 267.4, 1900 267.4 C 2215 267.4, 2285 180.8, 2600 180.8" fill="none" stroke="rgb(98,98,106)" stroke-width="2.3" opacity="0.43"/><path d="M -200 319.3 C 115 319.3, 185 640.5, 500 640.5 C 815 640.5, 885 714.4, 1200 714.4 C 1515 714.4, 1585 283.6, 1900 283.6 C 2215 283.6, 2285 197, 2600 197" fill="none" stroke="rgb(98,98,106)" stroke-width="1.4" opacity="0.38"/><path d="M -200 335.5 C 115 335.5, 185 656.8, 500 656.8 C 815 656.8, 885 730.7, 1200 730.7 C 1515 730.7, 1585 299.9, 1900 299.9 C 2215 299.9, 2285 213.3, 2600 213.3" fill="none" stroke="rgb(98,98,106)" stroke-width="1.8" opacity="0.33"/><path d="M -200 351.8 C 115 351.8, 185 673, 500 673 C 815 673, 885 746.9, 1200 746.9 C 1515 746.9, 1585 316.2, 1900 316.2 C 2215 316.2, 2285 229.6, 2600 229.6" fill="none" stroke="rgb(98,98,106)" stroke-width="2.1" opacity="0.28"/><path d="M -200 368.1 C 115 368.1, 185 689.3, 500 689.3 C 815 689.3, 885 763.2, 1200 763.2 C 1515 763.2, 1585 332.5, 1900 332.5 C 2215 332.5, 2285 245.8, 2600 245.8" fill="none" stroke="rgb(98,98,106)" stroke-width="1.8" opacity="0.22"/><path d="M -200 384.4 C 115 384.4, 185 705.6, 500 705.6 C 815 705.6, 885 779.5, 1200 779.5 C 1515 779.5, 1585 348.7, 1900 348.7 C 2215 348.7, 2285 262.1, 2600 262.1" fill="none" stroke="rgb(98,98,106)" stroke-width="1.9" opacity="0.17"/></g>
<g><path d="M -200 855.4 C -20 855.4, 20 516.5, 200 516.5 C 380 516.5, 420 429.4, 600 429.4 C 780 429.4, 820 676.3, 1000 676.3 C 1180 676.3, 1220 935.5, 1400 935.5 C 1580 935.5, 1620 912.8, 1800 912.8 C 1980 912.8, 2020 482.9, 2200 482.9 C 2380 482.9, 2420 483.9, 2600 483.9" fill="none" stroke="rgb(143,143,151)" stroke-width="1.3" opacity="0.12"/><path d="M -200 864.9 C -20 864.9, 20 526, 200 526 C 380 526, 420 438.9, 600 438.9 C 780 438.9, 820 685.8, 1000 685.8 C 1180 685.8, 1220 945, 1400 945 C 1580 945, 1620 922.3, 1800 922.3 C 1980 922.3, 2020 492.3, 2200 492.3 C 2380 492.3, 2420 493.4, 2600 493.4" fill="none" stroke="rgb(143,143,151)" stroke-width="1.5" opacity="0.22"/><path d="M -200 874.4 C -20 874.4, 20 535.5, 200 535.5 C 380 535.5, 420 448.4, 600 448.4 C 780 448.4, 820 695.3, 1000 695.3 C 1180 695.3, 1220 954.5, 1400 954.5 C 1580 954.5, 1620 931.7, 1800 931.7 C 1980 931.7, 2020 501.8, 2200 501.8 C 2380 501.8, 2420 502.9, 2600 502.9" fill="none" stroke="rgb(143,143,151)" stroke-width="1.5" opacity="0.31"/><path d="M -200 883.8 C -20 883.8, 20 544.9, 200 544.9 C 380 544.9, 420 457.8, 600 457.8 C 780 457.8, 820 704.8, 1000 704.8 C 1180 704.8, 1220 964, 1400 964 C 1580 964, 1620 941.2, 1800 941.2 C 1980 941.2, 2020 511.3, 2200 511.3 C 2380 511.3, 2420 512.4, 2600 512.4" fill="none" stroke="rgb(143,143,151)" stroke-width="1.6" opacity="0.41"/><path d="M -200 893.3 C -20 893.3, 20 554.4, 200 554.4 C 380 554.4, 420 467.3, 600 467.3 C 780 467.3, 820 714.3, 1000 714.3 C 1180 714.3, 1220 973.4, 1400 973.4 C 1580 973.4, 1620 950.7, 1800 950.7 C 1980 950.7, 2020 520.8, 2200 520.8 C 2380 520.8, 2420 521.9, 2600 521.9" fill="none" stroke="rgb(143,143,151)" stroke-width="1.9" opacity="0.41"/><path d="M -200 902.8 C -20 902.8, 20 563.9, 200 563.9 C 380 563.9, 420 476.8, 600 476.8 C 780 476.8, 820 723.7, 1000 723.7 C 1180 723.7, 1220 982.9, 1400 982.9 C 1580 982.9, 1620 960.2, 1800 960.2 C 1980 960.2, 2020 530.3, 2200 530.3 C 2380 530.3, 2420 531.3, 2600 531.3" fill="none" stroke="rgb(143,143,151)" stroke-width="1.8" opacity="0.31"/><path d="M -200 912.3 C -20 912.3, 20 573.4, 200 573.4 C 380 573.4, 420 486.3, 600 486.3 C 780 486.3, 820 733.2, 1000 733.2 C 1180 733.2, 1220 992.4, 1400 992.4 C 1580 992.4, 1620 969.7, 1800 969.7 C 1980 969.7, 2020 539.7, 2200 539.7 C 2380 539.7, 2420 540.8, 2600 540.8" fill="none" stroke="rgb(143,143,151)" stroke-width="1.9" opacity="0.22"/></g>
<g><path d="M -200 3.7 C 115 3.7, 185 -94.4, 500 -94.4 C 815 -94.4, 885 165.7, 1200 165.7 C 1515 165.7, 1585 476.7, 1900 476.7 C 2215 476.7, 2285 383.4, 2600 383.4" fill="none" stroke="rgb(146,146,154)" stroke-width="1.5" opacity="0.12"/><path d="M -200 17.6 C 115 17.6, 185 -80.5, 500 -80.5 C 815 -80.5, 885 179.7, 1200 179.7 C 1515 179.7, 1585 490.6, 1900 490.6 C 2215 490.6, 2285 397.4, 2600 397.4" fill="none" stroke="rgb(146,146,154)" stroke-width="1.4" opacity="0.20"/><path d="M -200 31.6 C 115 31.6, 185 -66.5, 500 -66.5 C 815 -66.5, 885 193.6, 1200 193.6 C 1515 193.6, 1585 504.6, 1900 504.6 C 2215 504.6, 2285 411.3, 2600 411.3" fill="none" stroke="rgb(146,146,154)" stroke-width="1.4" opacity="0.27"/><path d="M -200 45.6 C 115 45.6, 185 -52.6, 500 -52.6 C 815 -52.6, 885 207.6, 1200 207.6 C 1515 207.6, 1585 518.5, 1900 518.5 C 2215 518.5, 2285 425.3, 2600 425.3" fill="none" stroke="rgb(146,146,154)" stroke-width="2.1" opacity="0.35"/><path d="M -200 59.5 C 115 59.5, 185 -38.6, 500 -38.6 C 815 -38.6, 885 221.6, 1200 221.6 C 1515 221.6, 1585 532.5, 1900 532.5 C 2215 532.5, 2285 439.2, 2600 439.2" fill="none" stroke="rgb(146,146,154)" stroke-width="1.6" opacity="0.42"/><path d="M -200 73.5 C 115 73.5, 185 -24.6, 500 -24.6 C 815 -24.6, 885 235.5, 1200 235.5 C 1515 235.5, 1585 546.5, 1900 546.5 C 2215 546.5, 2285 453.2, 2600 453.2" fill="none" stroke="rgb(146,146,154)" stroke-width="2.1" opacity="0.42"/><path d="M -200 87.4 C 115 87.4, 185 -10.7, 500 -10.7 C 815 -10.7, 885 249.5, 1200 249.5 C 1515 249.5, 1585 560.4, 1900 560.4 C 2215 560.4, 2285 467.2, 2600 467.2" fill="none" stroke="rgb(146,146,154)" stroke-width="2.0" opacity="0.35"/><path d="M -200 101.4 C 115 101.4, 185 3.3, 500 3.3 C 815 3.3, 885 263.5, 1200 263.5 C 1515 263.5, 1585 574.4, 1900 574.4 C 2215 574.4, 2285 481.1, 2600 481.1" fill="none" stroke="rgb(146,146,154)" stroke-width="1.6" opacity="0.27"/><path d="M -200 115.4 C 115 115.4, 185 17.3, 500 17.3 C 815 17.3, 885 277.4, 1200 277.4 C 1515 277.4, 1585 588.3, 1900 588.3 C 2215 588.3, 2285 495.1, 2600 495.1" fill="none" stroke="rgb(146,146,154)" stroke-width="1.0" opacity="0.20"/></g>
<circle cx="734" cy="195" r="4.1" fill="rgb(110,110,118)" opacity="0.41"/>
<circle cx="1522" cy="751" r="9.7" fill="rgb(110,110,118)" opacity="0.39"/>
<circle cx="103" cy="75" r="4.8" fill="rgb(110,110,118)" opacity="0.25"/>
<circle cx="2277" cy="266" r="6.3" fill="rgb(110,110,118)" opacity="0.27"/>
</g>
</svg>
