<svg xmlns="http://www.w3.org/2000/svg" viewBox="0 0 2400 800" width="2400" height="800" preserveAspectRatio="xMidYMid slice" role="presentation">
<rect width="2400" height="800" fill="rgb(244,244,246)"/>
<path d="M 0 0 V 800 M 61 0 V 800 M 122 0 V 800 M 183 0 V 800 M 244 0 V 800 M 305 0 V 800 M 366 0 V 800 M 427 0 V 800 M 488 0 V 800 M 549 0 V 800 M 610 0 V 800 M 671 0 V 800 M 732 0 V 800 M 793 0 V 800 M 854 0 V 800 M 915 0 V 800 M 976 0 V 800 M 1037 0 V 800 M 1098 0 V 800 M 1159 0 V 800 M 1220 0 V 800 M 1281 0 V 800 M 1342 0 V 800 M 1403 0 V 800 M 1464 0 V 800 M 1525 0 V 800 M 1586 0 V 800 M 1647 0 V 800 M 1708 0 V 800 M 1769 0 V 800 M 1830 0 V 800 M 1891 0 V 800 M 1952 0 V 800 M 2013 0 V 800 M 2074 0 V 800 M 2135 0 V 800 M 2196 0 V 800 M 2257 0 V 800 M 2318 0 V 800 M 2379 0 V 800 M 0 0 H 2400 M 0 61 H 2400 M 0 122 H 2400 M 0 183 H 2400 M 0 244 H 2400 M 0 305 H 2400 M 0 366 H 2400 M 0 427 H 2400 M 0 488 H 2400 M 0 549 H 2400 M 0 610 H 2400 M 0 671 H 2400 M 0 732 H 2400 M 0 793 H 2400" fill="none" stroke="rgb(120,120,130)" stroke-width="1" opacity="0.24"/>
<g><circle cx="1982.8" cy="1536.2" r="143.5" fill="none" stroke="rgb(110,110,120)" stroke-width="2.1" opacity="0.65"/><circle cx="1982.8" cy="1536.2" r="174.7" fill="none" stroke="rgb(110,110,120)" stroke-width="3.4" opacity="0.63"/><circle cx="1982.8" cy="1536.2" r="205.9" fill="none" stroke="rgb(110,110,120)" stroke-width="3.2" opacity="0.61"/><circle cx="1982.8" cy="1536.2" r="237.2" fill="none" stroke="rgb(110,110,120)" stroke-width="1.9" opacity="0.59"/><circle cx="1982.8" cy="1536.2" r="268.4" fill="none" stroke="rgb(110,110,120)" stroke-width="2.5" opacity="0.57"/><circle cx="1982.8" cy="1536.2" r="299.6" fill="none" stroke="rgb(110,110,120)" stroke-width="2.4" opacity="0.55"/><circle cx="1982.8" cy="1536.2" r="330.9" fill="none" stroke="rgb(110,110,120)" stroke-width="2.8" opacity="0.53"/><circle cx="1982.8" cy="1536.2" r="362.1" fill="none" stroke="rgb(110,110,120)" stroke-width="2.6" opacity="0.51"/><circle cx="1982.8" cy="1536.2" r="393.3" fill="none" stroke="rgb(110,110,120)" stroke-width="1.8" opacity="0.49"/><circle cx="1982.8" cy="1536.2" r="424.6" fill="none" stroke="rgb(110,110,120)" stroke-width="2.2" opacity="0.47"/><circle cx="1982.8" cy="1536.2" r="455.8" fill="none" stroke="rgb(110,110,120)" stroke-width="1.5" opacity="0.45"/><circle cx="1982.8" cy="1536.2" r="487" fill="none" stroke="rgb(110,110,120)" stroke-width="1.9" opacity="0.43"/><circle cx="1982.8" cy="1536.2" r="518.3" fill="none" stroke="rgb(110,110,120)" stroke-width="2.1" opacity="0.42"/><circle cx="1982.8" cy="1536.2" r="549.5" fill="none" stroke="rgb(110,110,120)" stroke-width="2.6" opacity="0.40"/><circle cx="1982.8" cy="1536.2" r="580.7" fill="none" stroke="rgb(110,110,120)" stroke-width="3.0" opacity="0.38"/><circle cx="1982.8" cy="1536.2" r="612" fill="none" stroke="rgb(110,110,120)" stroke-width="2.2" opacity="0.36"/><circle cx="1982.8" cy="1536.2" r="643.2" fill="none" stroke="rgb(110,110,120)" stroke-width="3.1" opacity="0.34"/><circle cx="1982.8" cy="1536.2" r="674.4" fill="none" stroke="rgb(110,110,120)" stroke-width="2.9" opacity="0.32"/><circle cx="1982.8" cy="1536.2" r="705.7" fill="none" stroke="rgb(110,110,120)" stroke-width="2.2" opacity="0.30"/><circle cx="1982.8" cy="1536.2" r="736.9" fill="none" stroke="rgb(110,110,120)" stroke-width="2.8" opacity="0.28"/><circle cx="1982.8" cy="1536.2" r="768.1" fill="none" stroke="rgb(110,110,120)" stroke-width="3.4" opacity="0.26"/><circle cx="1982.8" cy="1536.2" r="799.4" fill="none" stroke="rgb(110,110,120)" stroke-width="1.9" opacity="0.24"/><circle cx="1982.8" cy="1536.2" r="830.6" fill="none" stroke="rgb(110,110,120)" stroke-width="1.4" opacity="0.22"/></g>
<g><circle cx="435.6" cy="1850.7" r="128.8" fill="none" stroke="rgb(111,111,121)" stroke-width="2.2" opacity="0.65"/><circle cx="435.6" cy="1850.7" r="197.8" fill="none" stroke="rgb(111,111,121)" stroke-width="3.0" opacity="0.61"/><circle cx="435.6" cy="1850.7" r="266.8" fill="none" stroke="rgb(111,111,121)" stroke-width="3.0" opacity="0.57"/><circle cx="435.6" cy="1850.7" r="335.8" fill="none" stroke="rgb(111,111,121)" stroke-width="3.2" opacity="0.53"/><circle cx="435.6" cy="1850.7" r="404.8" fill="none" stroke="rgb(111,111,121)" stroke-width="2.7" opacity="0.49"/><circle cx="435.6" cy="1850.7" r="473.8" fill="none" stroke="rgb(111,111,121)" stroke-width="2.3" opacity="0.45"/><circle cx="435.6" cy="1850.7" r="542.8" fill="none" stroke="rgb(111,111,121)" stroke-width="2.3" opacity="0.40"/><circle cx="435.6" cy="1850.7" r="611.8" fill="none" stroke="rgb(111,111,121)" stroke-width="2.8" opacity="0.36"/><circle cx="435.6" cy="1850.7" r="680.8" fill="none" stroke="rgb(111,111,121)" stroke-width="2.7" opacity="0.32"/><circle cx="435.6" cy="1850.7" r="749.8" fill="none" stroke="rgb(111,111,121)" stroke-width="3.5" opacity="0.28"/><circle cx="435.6" cy="1850.7" r="818.8" fill="none" stroke="rgb(111,111,121)" stroke-width="3.3" opacity="0.24"/></g>
<path d="M 858.9 -50 L 1773.8 -50 L 1167.1 850 L 252.2 850 Z" fill="rgb(146,146,152)" opacity="0.22"/>
<path d="M 2233.3 -50 L 3270.2 -50 L 2995.4 850 L 1958.5 850 Z" fill="rgb(137,137,143)" opacity="0.20"/>
<circle cx="732" cy="488" r="5.9" fill="rgb(105,105,115)" opacity="0.25"/>
<circle cx="2074" cy="244" r="5.2" fill="rgb(105,105,115)" opacity="0.38"/>
<circle cx="1769" cy="671" r="6.6" fill="rgb(105,105,115)" opacity="0.50"/>
<circle cx="1525" cy="793" r="6.3" fill="rgb(105,105,115)" opacity="0.50"/>
<circle cx="1647" cy="488" r="5.7" fill="rgb(105,105,115)" opacity="0.46"/>
<circle cx="1037" cy="366" r="7.0" fill="rgb(105,105,115)" opacity="0.25"/>
<circle cx="122" cy="0" r="4.4" fill="rgb(105,105,115)" opacity="0.26"/>
</svg>
