<svg xmlns="http://www.w3.org/2000/svg" viewBox="0 0 2400 800" width="2400" height="800" preserveAspectRatio="xMidYMid slice" role="presentation">
<rect width="2400" height="800" fill="rgb(244,244,246)"/>
<path d="M 0 0 V 800 M 85 0 V 800 M 170 0 V 800 M 255 0 V 800 M 340 0 V 800 M 425 0 V 800 M 510 0 V 800 M 595 0 V 800 M 680 0 V 800 M 765 0 V 800 M 850 0 V 800 M 935 0 V 800 M 1020 0 V 800 M 1105 0 V 800 M 1190 0 V 800 M 1275 0 V 800 M 1360 0 V 800 M 1445 0 V 800 M 1530 0 V 800 M 1615 0 V 800 M 1700 0 V 800 M 1785 0 V 800 M 1870 0 V 800 M 1955 0 V 800 M 2040 0 V 800 M 2125 0 V 800 M 2210 0 V 800 M 2295 0 V 800 M 2380 0 V 800 M 0 0 H 2400 M 0 85 H 2400 M 0 170 H 2400 M 0 255 H 2400 M 0 340 H 2400 M 0 425 H 2400 M 0 510 H 2400 M 0 595 H 2400 M 0 680 H 2400 M 0 765 H 2400" fill="none" stroke="rgb(120,120,130)" stroke-width="1" opacity="0.24"/>
<g><circle cx="-19.4" cy="-860.3" r="278.9" fill="none" stroke="rgb(83,83,93)" stroke-width="1.6" opacity="0.65"/><circle cx="-19.4" cy="-860.3" r="308.2" fill="none" stroke="rgb(83,83,93)" stroke-width="2.6" opacity="0.61"/><circle cx="-19.4" cy="-860.3" r="337.5" fill="none" stroke="rgb(83,83,93)" stroke-width="1.8" opacity="0.57"/><circle cx="-19.4" cy="-860.3" r="366.7" fill="none" stroke="rgb(83,83,93)" stroke-width="2.0" opacity="0.54"/><circle cx="-19.4" cy="-860.3" r="396" fill="none" stroke="rgb(83,83,93)" stroke-width="2.7" opacity="0.50"/><circle cx="-19.4" cy="-860.3" r="425.2" fill="none" stroke="rgb(83,83,93)" stroke-width="1.5" opacity="0.46"/><circle cx="-19.4" cy="-860.3" r="454.5" fill="none" stroke="rgb(83,83,93)" stroke-width="3.5" opacity="0.43"/><circle cx="-19.4" cy="-860.3" r="483.7" fill="none" stroke="rgb(83,83,93)" stroke-width="1.9" opacity="0.39"/><circle cx="-19.4" cy="-860.3" r="513" fill="none" stroke="rgb(83,83,93)" stroke-width="2.8" opacity="0.35"/><circle cx="-19.4" cy="-860.3" r="542.2" fill="none" stroke="rgb(83,83,93)" stroke-width="3.3" opacity="0.31"/><circle cx="-19.4" cy="-860.3" r="571.5" fill="none" stroke="rgb(83,83,93)" stroke-width="2.4" opacity="0.28"/><circle cx="-19.4" cy="-860.3" r="600.8" fill="none" stroke="rgb(83,83,93)" stroke-width="3.3" opacity="0.24"/></g>
<g><circle cx="2170.9" cy="1340.6" r="133.4" fill="none" stroke="rgb(81,81,91)" stroke-width="3.5" opacity="0.65"/><circle cx="2170.9" cy="1340.6" r="197.3" fill="none" stroke="rgb(81,81,91)" stroke-width="3.1" opacity="0.62"/><circle cx="2170.9" cy="1340.6" r="261.3" fill="none" stroke="rgb(81,81,91)" stroke-width="2.3" opacity="0.59"/><circle cx="2170.9" cy="1340.6" r="325.3" fill="none" stroke="rgb(81,81,91)" stroke-width="1.4" opacity="0.56"/><circle cx="2170.9" cy="1340.6" r="389.3" fill="none" stroke="rgb(81,81,91)" stroke-width="2.3" opacity="0.53"/><circle cx="2170.9" cy="1340.6" r="453.3" fill="none" stroke="rgb(81,81,91)" stroke-width="2.4" opacity="0.50"/><circle cx="2170.9" cy="1340.6" r="517.2" fill="none" stroke="rgb(81,81,91)" stroke-width="2.2" opacity="0.47"/><circle cx="2170.9" cy="1340.6" r="581.2" fill="none" stroke="rgb(81,81,91)" stroke-width="3.5" opacity="0.44"/><circle cx="2170.9" cy="1340.6" r="645.2" fill="none" stroke="rgb(81,81,91)" stroke-width="2.9" opacity="0.41"/><circle cx="2170.9" cy="1340.6" r="709.2" fill="none" stroke="rgb(81,81,91)" stroke-width="3.0" opacity="0.38"/><circle cx="2170.9" cy="1340.6" r="773.1" fill="none" stroke="rgb(81,81,91)" stroke-width="3.4" opacity="0.35"/><circle cx="2170.9" cy="1340.6" r="837.1" fill="none" stroke="rgb(81,81,91)" stroke-width="2.3" opacity="0.32"/><circle cx="2170.9" cy="1340.6" r="901.1" fill="none" stroke="rgb(81,81,91)" stroke-width="2.6" opacity="0.29"/><circle cx="2170.9" cy="1340.6" r="965.1" fill="none" stroke="rgb(81,81,91)" stroke-width="1.4" opacity="0.26"/><circle cx="2170.9" cy="1340.6" r="1029.1" fill="none" stroke="rgb(81,81,91)" stroke-width="2.5" opacity="0.23"/></g>
<g><circle cx="1898.8" cy="-488" r="222.6" fill="none" stroke="rgb(92,92,102)" stroke-width="3.4" opacity="0.65"/><circle cx="1898.8" cy="-488" r="284.9" fill="none" stroke="rgb(92,92,102)" stroke-width="2.8" opacity="0.63"/><circle cx="1898.8" cy="-488" r="347.1" fill="none" stroke="rgb(92,92,102)" stroke-width="2.0" opacity="0.61"/><circle cx="1898.8" cy="-488" r="409.4" fill="none" stroke="rgb(92,92,102)" stroke-width="1.9" opacity="0.59"/><circle cx="1898.8" cy="-488" r="471.6" fill="none" stroke="rgb(92,92,102)" stroke-width="3.0" opacity="0.56"/><circle cx="1898.8" cy="-488" r="533.8" fill="none" stroke="rgb(92,92,102)" stroke-width="2.6" opacity="0.54"/><circle cx="1898.8" cy="-488" r="596.1" fill="none" stroke="rgb(92,92,102)" stroke-width="2.3" opacity="0.52"/><circle cx="1898.8" cy="-488" r="658.3" fill="none" stroke="rgb(92,92,102)" stroke-width="2.1" opacity="0.50"/><circle cx="1898.8" cy="-488" r="720.5" fill="none" stroke="rgb(92,92,102)" stroke-width="3.0" opacity="0.48"/><circle cx="1898.8" cy="-488" r="782.8" fill="none" stroke="rgb(92,92,102)" stroke-width="3.5" opacity="0.46"/><circle cx="1898.8" cy="-488" r="845" fill="none" stroke="rgb(92,92,102)" stroke-width="1.4" opacity="0.44"/><circle cx="1898.8" cy="-488" r="907.3" fill="none" stroke="rgb(92,92,102)" stroke-width="2.8" opacity="0.41"/><circle cx="1898.8" cy="-488" r="969.5" fill="none" stroke="rgb(92,92,102)" stroke-width="3.3" opacity="0.39"/><circle cx="1898.8" cy="-488" r="1031.7" fill="none" stroke="rgb(92,92,102)" stroke-width="3.3" opacity="0.37"/><circle cx="1898.8" cy="-488" r="1094" fill="none" stroke="rgb(92,92,102)" stroke-width="1.7" opacity="0.35"/><circle cx="1898.8" cy="-488" r="1156.2" fill="none" stroke="rgb(92,92,102)" stroke-width="1.5" opacity="0.33"/><circle cx="1898.8" cy="-488" r="1218.5" fill="none" stroke="rgb(92,92,102)" stroke-width="2.4" opacity="0.31"/><circle cx="1898.8" cy="-488" r="1280.7" fill="none" stroke="rgb(92,92,102)" stroke-width="2.1" opacity="0.29"/><circle cx="1898.8" cy="-488" r="1342.9" fill="none" stroke="rgb(92,92,102)" stroke-width="2.0" opacity="0.26"/><circle cx="1898.8" cy="-488" r="1405.2" fill="none" stroke="rgb(92,92,102)" stroke-width="3.2" opacity="0.24"/><circle cx="1898.8" cy="-488" r="1467.4" fill="none" stroke="rgb(92,92,102)" stroke-width="1.6" opacity="0.22"/></g>
<path d="M 582.6 -50 L 1153 -50 L 362.9 850 L -207.5 850 Z" fill="rgb(135,135,141)" opacity="0.35"/>
<path d="M 2313.7 -50 L 2840.6 -50 L 3419.7 850 L 2892.7 850 Z" fill="rgb(144,144,150)" opacity="0.35"/>
<path d="M 925.1 -50 L 1977.2 -50 L 2559.3 850 L 1507.1 850 Z" fill="rgb(127,127,133)" opacity="0.22"/>
<circle cx="1700" cy="425" r="5.9" fill="rgb(105,105,115)" opacity="0.27"/>
<circle cx="2380" cy="680" r="6.9" fill="rgb(105,105,115)" opacity="0.29"/>
<circle cx="850" cy="85" r="6.9" fill="rgb(105,105,115)" opacity="0.48"/>
<circle cx="170" cy="340" r="2.9" fill="rgb(105,105,115)" opacity="0.33"/>
<circle cx="510" cy="765" r="6.6" fill="rgb(105,105,115)" opacity="0.36"/>
<circle cx="1445" cy="340" r="5.5" fill="rgb(105,105,115)" opacity="0.25"/>
<circle cx="170" cy="425" r="2.8" fill="rgb(105,105,115)" opacity="0.35"/>
</svg>
