<svg xmlns="http://www.w3.org/2000/svg" viewBox="0 0 2400 800" width="2400" height="800" preserveAspectRatio="xMidYMid slice" role="presentation">
<rect width="2400" height="800" fill="rgb(244,244,246)"/>
<path d="M 0 0 V 800 M 124 0 V 800 M 248 0 V 800 M 372 0 V 800 M 496 0 V 800 M 620 0 V 800 M 744 0 V 800 M 868 0 V 800 M 992 0 V 800 M 1116 0 V 800 M 1240 0 V 800 M 1364 0 V 800 M 1488 0 V 800 M 1612 0 V 800 M 1736 0 V 800 M 1860 0 V 800 M 1984 0 V 800 M 2108 0 V 800 M 2232 0 V 800 M 2356 0 V 800 M 0 0 H 2400 M 0 124 H 2400 M 0 248 H 2400 M 0 372 H 2400 M 0 496 H 2400 M 0 620 H 2400 M 0 744 H 2400" fill="none" stroke="rgb(120,120,130)" stroke-width="1" opacity="0.24"/>
<g><circle cx="1630.1" cy="1559.3" r="377.7" fill="none" stroke="rgb(77,77,87)" stroke-width="2.0" opacity="0.65"/><circle cx="1630.1" cy="1559.3" r="445.5" fill="none" stroke="rgb(77,77,87)" stroke-width="2.1" opacity="0.63"/><circle cx="1630.1" cy="1559.3" r="513.2" fill="none" stroke="rgb(77,77,87)" stroke-width="1.9" opacity="0.61"/><circle cx="1630.1" cy="1559.3" r="580.9" fill="none" stroke="rgb(77,77,87)" stroke-width="3.3" opacity="0.59"/><circle cx="1630.1" cy="1559.3" r="648.6" fill="none" stroke="rgb(77,77,87)" stroke-width="2.7" opacity="0.57"/><circle cx="1630.1" cy="1559.3" r="716.3" fill="none" stroke="rgb(77,77,87)" stroke-width="2.1" opacity="0.55"/><circle cx="1630.1" cy="1559.3" r="784" fill="none" stroke="rgb(77,77,87)" stroke-width="3.2" opacity="0.53"/><circle cx="1630.1" cy="1559.3" r="851.7" fill="none" stroke="rgb(77,77,87)" stroke-width="2.3" opacity="0.51"/><circle cx="1630.1" cy="1559.3" r="919.4" fill="none" stroke="rgb(77,77,87)" stroke-width="2.0" opacity="0.49"/><circle cx="1630.1" cy="1559.3" r="987.2" fill="none" stroke="rgb(77,77,87)" stroke-width="2.6" opacity="0.47"/><circle cx="1630.1" cy="1559.3" r="1054.9" fill="none" stroke="rgb(77,77,87)" stroke-width="1.8" opacity="0.45"/><circle cx="1630.1" cy="1559.3" r="1122.6" fill="none" stroke="rgb(77,77,87)" stroke-width="2.6" opacity="0.43"/><circle cx="1630.1" cy="1559.3" r="1190.3" fill="none" stroke="rgb(77,77,87)" stroke-width="2.6" opacity="0.42"/><circle cx="1630.1" cy="1559.3" r="1258" fill="none" stroke="rgb(77,77,87)" stroke-width="2.7" opacity="0.40"/><circle cx="1630.1" cy="1559.3" r="1325.7" fill="none" stroke="rgb(77,77,87)" stroke-width="1.7" opacity="0.38"/><circle cx="1630.1" cy="1559.3" r="1393.4" fill="none" stroke="rgb(77,77,87)" stroke-width="1.5" opacity="0.36"/><circle cx="1630.1" cy="1559.3" r="1461.2" fill="none" stroke="rgb(77,77,87)" stroke-width="1.7" opacity="0.34"/><circle cx="1630.1" cy="1559.3" r="1528.9" fill="none" stroke="rgb(77,77,87)" stroke-width="3.2" opacity="0.32"/><circle cx="1630.1" cy="1559.3" r="1596.6" fill="none" stroke="rgb(77,77,87)" stroke-width="1.6" opacity="0.30"/><circle cx="1630.1" cy="1559.3" r="1664.3" fill="none" stroke="rgb(77,77,87)" stroke-width="2.3" opacity="0.28"/><circle cx="1630.1" cy="1559.3" r="1732" fill="none" stroke="rgb(77,77,87)" stroke-width="2.8" opacity="0.26"/><circle cx="1630.1" cy="1559.3" r="1799.7" fill="none" stroke="rgb(77,77,87)" stroke-width="3.4" opacity="0.24"/><circle cx="1630.1" cy="1559.3" r="1867.4" fill="none" stroke="rgb(77,77,87)" stroke-width="2.8" opacity="0.22"/></g>
<g><circle cx="2172.2" cy="1655" r="145.5" fill="none" stroke="rgb(88,88,98)" stroke-width="3.0" opacity="0.65"/><circle cx="2172.2" cy="1655" r="189.7" fill="none" stroke="rgb(88,88,98)" stroke-width="2.8" opacity="0.62"/><circle cx="2172.2" cy="1655" r="233.9" fill="none" stroke="rgb(88,88,98)" stroke-width="3.5" opacity="0.59"/><circle cx="2172.2" cy="1655" r="278.1" fill="none" stroke="rgb(88,88,98)" stroke-width="2.0" opacity="0.57"/><circle cx="2172.2" cy="1655" r="322.3" fill="none" stroke="rgb(88,88,98)" stroke-width="3.4" opacity="0.54"/><circle cx="2172.2" cy="1655" r="366.5" fill="none" stroke="rgb(88,88,98)" stroke-width="2.3" opacity="0.51"/><circle cx="2172.2" cy="1655" r="410.6" fill="none" stroke="rgb(88,88,98)" stroke-width="3.4" opacity="0.48"/><circle cx="2172.2" cy="1655" r="454.8" fill="none" stroke="rgb(88,88,98)" stroke-width="1.7" opacity="0.45"/><circle cx="2172.2" cy="1655" r="499" fill="none" stroke="rgb(88,88,98)" stroke-width="1.7" opacity="0.43"/><circle cx="2172.2" cy="1655" r="543.2" fill="none" stroke="rgb(88,88,98)" stroke-width="3.4" opacity="0.40"/><circle cx="2172.2" cy="1655" r="587.4" fill="none" stroke="rgb(88,88,98)" stroke-width="2.0" opacity="0.37"/><circle cx="2172.2" cy="1655" r="631.6" fill="none" stroke="rgb(88,88,98)" stroke-width="3.2" opacity="0.34"/><circle cx="2172.2" cy="1655" r="675.8" fill="none" stroke="rgb(88,88,98)" stroke-width="1.4" opacity="0.31"/><circle cx="2172.2" cy="1655" r="720" fill="none" stroke="rgb(88,88,98)" stroke-width="3.6" opacity="0.28"/><circle cx="2172.2" cy="1655" r="764.2" fill="none" stroke="rgb(88,88,98)" stroke-width="3.6" opacity="0.26"/><circle cx="2172.2" cy="1655" r="808.3" fill="none" stroke="rgb(88,88,98)" stroke-width="1.6" opacity="0.23"/></g>
<path d="M 1178.8 -50 L 2355.1 -50 L 2655.5 850 L 1479.1 850 Z" fill="rgb(177,177,183)" opacity="0.35"/>
<path d="M 1951.2 -50 L 2383.3 -50 L 2840.7 850 L 2408.6 850 Z" fill="rgb(176,176,182)" opacity="0.32"/>
<circle cx="620" cy="744" r="5.1" fill="rgb(105,105,115)" opacity="0.31"/>
<circle cx="1612" cy="248" r="3.7" fill="rgb(105,105,115)" opacity="0.31"/>
<circle cx="1116" cy="620" r="4.1" fill="rgb(105,105,115)" opacity="0.46"/>
<circle cx="2356" cy="496" r="2.8" fill="rgb(105,105,115)" opacity="0.35"/>
<circle cx="372" cy="620" r="5.5" fill="rgb(105,105,115)" opacity="0.50"/>
<circle cx="1612" cy="124" r="4.4" fill="rgb(105,105,115)" opacity="0.29"/>
<circle cx="744" cy="124" r="2.6" fill="rgb(105,105,115)" opacity="0.41"/>
</svg>
