<svg xmlns="http://www.w3.org/2000/svg" viewBox="0 0 2400 800" width="2400" height="800" preserveAspectRatio="xMidYMid slice" role="presentation">
<rect width="2400" height="800" fill="rgb(244,244,246)"/>
<path d="M 0 0 V 800 M 86 0 V 800 M 172 0 V 800 M 258 0 V 800 M 344 0 V 800 M 430 0 V 800 M 516 0 V 800 M 602 0 V 800 M 688 0 V 800 M 774 0 V 800 M 860 0 V 800 M 946 0 V 800 M 1032 0 V 800 M 1118 0 V 800 M 1204 0 V 800 M 1290 0 V 800 M 1376 0 V 800 M 1462 0 V 800 M 1548 0 V 800 M 1634 0 V 800 M 1720 0 V 800 M 1806 0 V 800 M 1892 0 V 800 M 1978 0 V 800 M 2064 0 V 800 M 2150 0 V 800 M 2236 0 V 800 M 2322 0 V 800 M 0 0 H 2400 M 0 86 H 2400 M 0 172 H 2400 M 0 258 H 2400 M 0 344 H 2400 M 0 430 H 2400 M 0 516 H 2400 M 0 602 H 2400 M 0 688 H 2400 M 0 774 H 2400" fill="none" stroke="rgb(120,120,130)" stroke-width="1" opacity="0.24"/>
<g><circle cx="2222.2" cy="-752.9" r="193.7" fill="none" stroke="rgb(102,102,112)" stroke-width="2.4" opacity="0.65"/><circle cx="2222.2" cy="-752.9" r="264.2" fill="none" stroke="rgb(102,102,112)" stroke-width="2.6" opacity="0.63"/><circle cx="2222.2" cy="-752.9" r="334.8" fill="none" stroke="rgb(102,102,112)" stroke-width="3.0" opacity="0.61"/><circle cx="2222.2" cy="-752.9" r="405.4" fill="none" stroke="rgb(102,102,112)" stroke-width="2.4" opacity="0.59"/><circle cx="2222.2" cy="-752.9" r="476" fill="none" stroke="rgb(102,102,112)" stroke-width="2.2" opacity="0.57"/><circle cx="2222.2" cy="-752.9" r="546.6" fill="none" stroke="rgb(102,102,112)" stroke-width="2.4" opacity="0.55"/><circle cx="2222.2" cy="-752.9" r="617.1" fill="none" stroke="rgb(102,102,112)" stroke-width="2.0" opacity="0.53"/><circle cx="2222.2" cy="-752.9" r="687.7" fill="none" stroke="rgb(102,102,112)" stroke-width="2.6" opacity="0.51"/><circle cx="2222.2" cy="-752.9" r="758.3" fill="none" stroke="rgb(102,102,112)" stroke-width="2.1" opacity="0.49"/><circle cx="2222.2" cy="-752.9" r="828.9" fill="none" stroke="rgb(102,102,112)" stroke-width="3.6" opacity="0.47"/><circle cx="2222.2" cy="-752.9" r="899.5" fill="none" stroke="rgb(102,102,112)" stroke-width="1.9" opacity="0.45"/><circle cx="2222.2" cy="-752.9" r="970" fill="none" stroke="rgb(102,102,112)" stroke-width="2.6" opacity="0.43"/><circle cx="2222.2" cy="-752.9" r="1040.6" fill="none" stroke="rgb(102,102,112)" stroke-width="3.2" opacity="0.42"/><circle cx="2222.2" cy="-752.9" r="1111.2" fill="none" stroke="rgb(102,102,112)" stroke-width="1.6" opacity="0.40"/><circle cx="2222.2" cy="-752.9" r="1181.8" fill="none" stroke="rgb(102,102,112)" stroke-width="1.5" opacity="0.38"/><circle cx="2222.2" cy="-752.9" r="1252.4" fill="none" stroke="rgb(102,102,112)" stroke-width="2.6" opacity="0.36"/><circle cx="2222.2" cy="-752.9" r="1323" fill="none" stroke="rgb(102,102,112)" stroke-width="3.1" opacity="0.34"/><circle cx="2222.2" cy="-752.9" r="1393.5" fill="none" stroke="rgb(102,102,112)" stroke-width="1.5" opacity="0.32"/><circle cx="2222.2" cy="-752.9" r="1464.1" fill="none" stroke="rgb(102,102,112)" stroke-width="3.1" opacity="0.30"/><circle cx="2222.2" cy="-752.9" r="1534.7" fill="none" stroke="rgb(102,102,112)" stroke-width="3.0" opacity="0.28"/><circle cx="2222.2" cy="-752.9" r="1605.3" fill="none" stroke="rgb(102,102,112)" stroke-width="2.8" opacity="0.26"/><circle cx="2222.2" cy="-752.9" r="1675.9" fill="none" stroke="rgb(102,102,112)" stroke-width="1.6" opacity="0.24"/><circle cx="2222.2" cy="-752.9" r="1746.4" fill="none" stroke="rgb(102,102,112)" stroke-width="2.6" opacity="0.22"/></g>
<g><circle cx="2713.9" cy="1389.1" r="124.2" fill="none" stroke="rgb(104,104,114)" stroke-width="2.7" opacity="0.65"/><circle cx="2713.9" cy="1389.1" r="195.2" fill="none" stroke="rgb(104,104,114)" stroke-width="3.4" opacity="0.62"/><circle cx="2713.9" cy="1389.1" r="266.1" fill="none" stroke="rgb(104,104,114)" stroke-width="2.8" opacity="0.59"/><circle cx="2713.9" cy="1389.1" r="337.1" fill="none" stroke="rgb(104,104,114)" stroke-width="1.9" opacity="0.55"/><circle cx="2713.9" cy="1389.1" r="408" fill="none" stroke="rgb(104,104,114)" stroke-width="3.2" opacity="0.52"/><circle cx="2713.9" cy="1389.1" r="479" fill="none" stroke="rgb(104,104,114)" stroke-width="2.7" opacity="0.49"/><circle cx="2713.9" cy="1389.1" r="550" fill="none" stroke="rgb(104,104,114)" stroke-width="1.9" opacity="0.46"/><circle cx="2713.9" cy="1389.1" r="620.9" fill="none" stroke="rgb(104,104,114)" stroke-width="1.8" opacity="0.43"/><circle cx="2713.9" cy="1389.1" r="691.9" fill="none" stroke="rgb(104,104,114)" stroke-width="3.4" opacity="0.39"/><circle cx="2713.9" cy="1389.1" r="762.8" fill="none" stroke="rgb(104,104,114)" stroke-width="3.3" opacity="0.36"/><circle cx="2713.9" cy="1389.1" r="833.8" fill="none" stroke="rgb(104,104,114)" stroke-width="2.2" opacity="0.33"/><circle cx="2713.9" cy="1389.1" r="904.8" fill="none" stroke="rgb(104,104,114)" stroke-width="3.5" opacity="0.30"/><circle cx="2713.9" cy="1389.1" r="975.7" fill="none" stroke="rgb(104,104,114)" stroke-width="3.3" opacity="0.26"/><circle cx="2713.9" cy="1389.1" r="1046.7" fill="none" stroke="rgb(104,104,114)" stroke-width="3.0" opacity="0.23"/></g>
<g><circle cx="2009.1" cy="1655.9" r="301.7" fill="none" stroke="rgb(89,89,99)" stroke-width="1.8" opacity="0.65"/><circle cx="2009.1" cy="1655.9" r="366.6" fill="none" stroke="rgb(89,89,99)" stroke-width="2.9" opacity="0.62"/><circle cx="2009.1" cy="1655.9" r="431.4" fill="none" stroke="rgb(89,89,99)" stroke-width="3.6" opacity="0.58"/><circle cx="2009.1" cy="1655.9" r="496.3" fill="none" stroke="rgb(89,89,99)" stroke-width="1.7" opacity="0.55"/><circle cx="2009.1" cy="1655.9" r="561.1" fill="none" stroke="rgb(89,89,99)" stroke-width="3.6" opacity="0.51"/><circle cx="2009.1" cy="1655.9" r="626" fill="none" stroke="rgb(89,89,99)" stroke-width="3.5" opacity="0.48"/><circle cx="2009.1" cy="1655.9" r="690.9" fill="none" stroke="rgb(89,89,99)" stroke-width="1.6" opacity="0.44"/><circle cx="2009.1" cy="1655.9" r="755.7" fill="none" stroke="rgb(89,89,99)" stroke-width="1.7" opacity="0.41"/><circle cx="2009.1" cy="1655.9" r="820.6" fill="none" stroke="rgb(89,89,99)" stroke-width="1.4" opacity="0.37"/><circle cx="2009.1" cy="1655.9" r="885.4" fill="none" stroke="rgb(89,89,99)" stroke-width="2.2" opacity="0.34"/><circle cx="2009.1" cy="1655.9" r="950.3" fill="none" stroke="rgb(89,89,99)" stroke-width="3.0" opacity="0.30"/><circle cx="2009.1" cy="1655.9" r="1015.2" fill="none" stroke="rgb(89,89,99)" stroke-width="2.0" opacity="0.27"/><circle cx="2009.1" cy="1655.9" r="1080" fill="none" stroke="rgb(89,89,99)" stroke-width="1.9" opacity="0.23"/></g>
<path d="M 856.2 -50 L 1409.4 -50 L 830.8 850 L 277.6 850 Z" fill="rgb(144,144,150)" opacity="0.18"/>
<path d="M 228.9 -50 L 1436.6 -50 L 2339.6 850 L 1131.9 850 Z" fill="rgb(158,158,164)" opacity="0.18"/>
<circle cx="860" cy="172" r="7.0" fill="rgb(105,105,115)" opacity="0.31"/>
<circle cx="860" cy="688" r="2.5" fill="rgb(105,105,115)" opacity="0.33"/>
<circle cx="1806" cy="688" r="4.2" fill="rgb(105,105,115)" opacity="0.44"/>
<circle cx="86" cy="86" r="4.5" fill="rgb(105,105,115)" opacity="0.47"/>
<circle cx="516" cy="344" r="3.7" fill="rgb(105,105,115)" opacity="0.46"/>
<circle cx="258" cy="430" r="3.2" fill="rgb(105,105,115)" opacity="0.39"/>
<circle cx="2150" cy="430" r="5.4" fill="rgb(105,105,115)" opacity="0.40"/>
</svg>
