<svg xmlns="http://www.w3.org/2000/svg" viewBox="0 0 2400 800" width="2400" height="800" preserveAspectRatio="xMidYMid slice" role="presentation">
<rect width="2400" height="800" fill="rgb(244,244,246)"/>
<path d="M 0 0 V 800 M 109 0 V 800 M 218 0 V 800 M 327 0 V 800 M 436 0 V 800 M 545 0 V 800 M 654 0 V 800 M 763 0 V 800 M 872 0 V 800 M 981 0 V 800 M 1090 0 V 800 M 1199 0 V 800 M 1308 0 V 800 M 1417 0 V 800 M 1526 0 V 800 M 1635 0 V 800 M 1744 0 V 800 M 1853 0 V 800 M 1962 0 V 800 M 2071 0 V 800 M 2180 0 V 800 M 2289 0 V 800 M 2398 0 V 800 M 0 0 H 2400 M 0 109 H 2400 M 0 218 H 2400 M 0 327 H 2400 M 0 436 H 2400 M 0 545 H 2400 M 0 654 H 2400 M 0 763 H 2400" fill="none" stroke="rgb(120,120,130)" stroke-width="1" opacity="0.24"/>
<g><circle cx="339.1" cy="1462.1" r="160.5" fill="none" stroke="rgb(112,112,122)" stroke-width="2.5" opacity="0.65"/><circle cx="339.1" cy="1462.1" r="215.2" fill="none" stroke="rgb(112,112,122)" stroke-width="1.8" opacity="0.62"/><circle cx="339.1" cy="1462.1" r="269.9" fill="none" stroke="rgb(112,112,122)" stroke-width="2.7" opacity="0.59"/><circle cx="339.1" cy="1462.1" r="324.6" fill="none" stroke="rgb(112,112,122)" stroke-width="2.5" opacity="0.56"/><circle cx="339.1" cy="1462.1" r="379.4" fill="none" stroke="rgb(112,112,122)" stroke-width="3.5" opacity="0.53"/><circle cx="339.1" cy="1462.1" r="434.1" fill="none" stroke="rgb(112,112,122)" stroke-width="1.7" opacity="0.50"/><circle cx="339.1" cy="1462.1" r="488.8" fill="none" stroke="rgb(112,112,122)" stroke-width="2.0" opacity="0.47"/><circle cx="339.1" cy="1462.1" r="543.5" fill="none" stroke="rgb(112,112,122)" stroke-width="1.8" opacity="0.44"/><circle cx="339.1" cy="1462.1" r="598.2" fill="none" stroke="rgb(112,112,122)" stroke-width="2.3" opacity="0.41"/><circle cx="339.1" cy="1462.1" r="653" fill="none" stroke="rgb(112,112,122)" stroke-width="1.5" opacity="0.38"/><circle cx="339.1" cy="1462.1" r="707.7" fill="none" stroke="rgb(112,112,122)" stroke-width="3.5" opacity="0.35"/><circle cx="339.1" cy="1462.1" r="762.4" fill="none" stroke="rgb(112,112,122)" stroke-width="2.7" opacity="0.32"/><circle cx="339.1" cy="1462.1" r="817.1" fill="none" stroke="rgb(112,112,122)" stroke-width="2.3" opacity="0.29"/><circle cx="339.1" cy="1462.1" r="871.8" fill="none" stroke="rgb(112,112,122)" stroke-width="3.0" opacity="0.26"/><circle cx="339.1" cy="1462.1" r="926.6" fill="none" stroke="rgb(112,112,122)" stroke-width="1.6" opacity="0.23"/></g>
<g><circle cx="-89.2" cy="-938.1" r="157.6" fill="none" stroke="rgb(91,91,101)" stroke-width="2.2" opacity="0.65"/><circle cx="-89.2" cy="-938.1" r="221.5" fill="none" stroke="rgb(91,91,101)" stroke-width="2.5" opacity="0.62"/><circle cx="-89.2" cy="-938.1" r="285.4" fill="none" stroke="rgb(91,91,101)" stroke-width="1.5" opacity="0.59"/><circle cx="-89.2" cy="-938.1" r="349.3" fill="none" stroke="rgb(91,91,101)" stroke-width="3.4" opacity="0.57"/><circle cx="-89.2" cy="-938.1" r="413.2" fill="none" stroke="rgb(91,91,101)" stroke-width="3.5" opacity="0.54"/><circle cx="-89.2" cy="-938.1" r="477" fill="none" stroke="rgb(91,91,101)" stroke-width="2.6" opacity="0.51"/><circle cx="-89.2" cy="-938.1" r="540.9" fill="none" stroke="rgb(91,91,101)" stroke-width="1.5" opacity="0.48"/><circle cx="-89.2" cy="-938.1" r="604.8" fill="none" stroke="rgb(91,91,101)" stroke-width="3.5" opacity="0.45"/><circle cx="-89.2" cy="-938.1" r="668.7" fill="none" stroke="rgb(91,91,101)" stroke-width="3.6" opacity="0.43"/><circle cx="-89.2" cy="-938.1" r="732.6" fill="none" stroke="rgb(91,91,101)" stroke-width="1.8" opacity="0.40"/><circle cx="-89.2" cy="-938.1" r="796.4" fill="none" stroke="rgb(91,91,101)" stroke-width="3.1" opacity="0.37"/><circle cx="-89.2" cy="-938.1" r="860.3" fill="none" stroke="rgb(91,91,101)" stroke-width="2.2" opacity="0.34"/><circle cx="-89.2" cy="-938.1" r="924.2" fill="none" stroke="rgb(91,91,101)" stroke-width="3.6" opacity="0.31"/><circle cx="-89.2" cy="-938.1" r="988.1" fill="none" stroke="rgb(91,91,101)" stroke-width="2.5" opacity="0.28"/><circle cx="-89.2" cy="-938.1" r="1051.9" fill="none" stroke="rgb(91,91,101)" stroke-width="2.9" opacity="0.26"/><circle cx="-89.2" cy="-938.1" r="1115.8" fill="none" stroke="rgb(91,91,101)" stroke-width="2.7" opacity="0.23"/></g>
<path d="M 1849.1 -50 L 2748.7 -50 L 1867.4 850 L 967.7 850 Z" fill="rgb(126,126,132)" opacity="0.36"/>
<path d="M 2240.3 -50 L 3064.7 -50 L 2762 850 L 1937.7 850 Z" fill="rgb(160,160,166)" opacity="0.32"/>
<circle cx="109" cy="109" r="6.1" fill="rgb(105,105,115)" opacity="0.29"/>
<circle cx="1962" cy="109" r="6.2" fill="rgb(105,105,115)" opacity="0.50"/>
<circle cx="545" cy="218" r="5.9" fill="rgb(105,105,115)" opacity="0.44"/>
<circle cx="1962" cy="218" r="6.1" fill="rgb(105,105,115)" opacity="0.36"/>
<circle cx="763" cy="109" r="5.3" fill="rgb(105,105,115)" opacity="0.40"/>
<circle cx="1744" cy="545" r="7.5" fill="rgb(105,105,115)" opacity="0.32"/>
<circle cx="1308" cy="545" r="6.6" fill="rgb(105,105,115)" opacity="0.40"/>
</svg>
