<svg xmlns="http://www.w3.org/2000/svg" viewBox="0 0 2400 800" width="2400" height="800" preserveAspectRatio="xMidYMid slice" role="presentation">
<rect width="2400" height="800" fill="rgb(244,244,246)"/>
<path d="M 0 0 V 800 M 97 0 V 800 M 194 0 V 800 M 291 0 V 800 M 388 0 V 800 M 485 0 V 800 M 582 0 V 800 M 679 0 V 800 M 776 0 V 800 M 873 0 V 800 M 970 0 V 800 M 1067 0 V 800 M 1164 0 V 800 M 1261 0 V 800 M 1358 0 V 800 M 1455 0 V 800 M 1552 0 V 800 M 1649 0 V 800 M 1746 0 V 800 M 1843 0 V 800 M 1940 0 V 800 M 2037 0 V 800 M 2134 0 V 800 M 2231 0 V 800 M 2328 0 V 800 M 0 0 H 2400 M 0 97 H 2400 M 0 194 H 2400 M 0 291 H 2400 M 0 388 H 2400 M 0 485 H 2400 M 0 582 H 2400 M 0 679 H 2400 M 0 776 H 2400" fill="none" stroke="rgb(120,120,130)" stroke-width="1" opacity="0.24"/>
<g><circle cx="1662.1" cy="-1074.5" r="276" fill="none" stroke="rgb(93,93,103)" stroke-width="3.0" opacity="0.65"/><circle cx="1662.1" cy="-1074.5" r="323.2" fill="none" stroke="rgb(93,93,103)" stroke-width="2.7" opacity="0.63"/><circle cx="1662.1" cy="-1074.5" r="370.5" fill="none" stroke="rgb(93,93,103)" stroke-width="3.2" opacity="0.60"/><circle cx="1662.1" cy="-1074.5" r="417.8" fill="none" stroke="rgb(93,93,103)" stroke-width="2.0" opacity="0.58"/><circle cx="1662.1" cy="-1074.5" r="465.1" fill="none" stroke="rgb(93,93,103)" stroke-width="1.5" opacity="0.56"/><circle cx="1662.1" cy="-1074.5" r="512.4" fill="none" stroke="rgb(93,93,103)" stroke-width="1.7" opacity="0.54"/><circle cx="1662.1" cy="-1074.5" r="559.7" fill="none" stroke="rgb(93,93,103)" stroke-width="2.5" opacity="0.52"/><circle cx="1662.1" cy="-1074.5" r="606.9" fill="none" stroke="rgb(93,93,103)" stroke-width="1.9" opacity="0.49"/><circle cx="1662.1" cy="-1074.5" r="654.2" fill="none" stroke="rgb(93,93,103)" stroke-width="1.7" opacity="0.47"/><circle cx="1662.1" cy="-1074.5" r="701.5" fill="none" stroke="rgb(93,93,103)" stroke-width="3.5" opacity="0.45"/><circle cx="1662.1" cy="-1074.5" r="748.8" fill="none" stroke="rgb(93,93,103)" stroke-width="3.3" opacity="0.43"/><circle cx="1662.1" cy="-1074.5" r="796.1" fill="none" stroke="rgb(93,93,103)" stroke-width="2.4" opacity="0.40"/><circle cx="1662.1" cy="-1074.5" r="843.3" fill="none" stroke="rgb(93,93,103)" stroke-width="1.8" opacity="0.38"/><circle cx="1662.1" cy="-1074.5" r="890.6" fill="none" stroke="rgb(93,93,103)" stroke-width="1.4" opacity="0.36"/><circle cx="1662.1" cy="-1074.5" r="937.9" fill="none" stroke="rgb(93,93,103)" stroke-width="2.4" opacity="0.34"/><circle cx="1662.1" cy="-1074.5" r="985.2" fill="none" stroke="rgb(93,93,103)" stroke-width="2.9" opacity="0.31"/><circle cx="1662.1" cy="-1074.5" r="1032.5" fill="none" stroke="rgb(93,93,103)" stroke-width="3.0" opacity="0.29"/><circle cx="1662.1" cy="-1074.5" r="1079.8" fill="none" stroke="rgb(93,93,103)" stroke-width="2.4" opacity="0.27"/><circle cx="1662.1" cy="-1074.5" r="1127" fill="none" stroke="rgb(93,93,103)" stroke-width="2.6" opacity="0.24"/><circle cx="1662.1" cy="-1074.5" r="1174.3" fill="none" stroke="rgb(93,93,103)" stroke-width="1.7" opacity="0.22"/></g>
<g><circle cx="734" cy="1843.8" r="293.1" fill="none" stroke="rgb(103,103,113)" stroke-width="2.3" opacity="0.65"/><circle cx="734" cy="1843.8" r="353.5" fill="none" stroke="rgb(103,103,113)" stroke-width="2.1" opacity="0.63"/><circle cx="734" cy="1843.8" r="414" fill="none" stroke="rgb(103,103,113)" stroke-width="2.4" opacity="0.60"/><circle cx="734" cy="1843.8" r="474.4" fill="none" stroke="rgb(103,103,113)" stroke-width="2.0" opacity="0.58"/><circle cx="734" cy="1843.8" r="534.9" fill="none" stroke="rgb(103,103,113)" stroke-width="2.6" opacity="0.56"/><circle cx="734" cy="1843.8" r="595.3" fill="none" stroke="rgb(103,103,113)" stroke-width="2.2" opacity="0.53"/><circle cx="734" cy="1843.8" r="655.8" fill="none" stroke="rgb(103,103,113)" stroke-width="2.3" opacity="0.51"/><circle cx="734" cy="1843.8" r="716.3" fill="none" stroke="rgb(103,103,113)" stroke-width="2.5" opacity="0.48"/><circle cx="734" cy="1843.8" r="776.7" fill="none" stroke="rgb(103,103,113)" stroke-width="2.8" opacity="0.46"/><circle cx="734" cy="1843.8" r="837.2" fill="none" stroke="rgb(103,103,113)" stroke-width="2.8" opacity="0.44"/><circle cx="734" cy="1843.8" r="897.6" fill="none" stroke="rgb(103,103,113)" stroke-width="3.3" opacity="0.41"/><circle cx="734" cy="1843.8" r="958.1" fill="none" stroke="rgb(103,103,113)" stroke-width="3.4" opacity="0.39"/><circle cx="734" cy="1843.8" r="1018.5" fill="none" stroke="rgb(103,103,113)" stroke-width="2.1" opacity="0.37"/><circle cx="734" cy="1843.8" r="1079" fill="none" stroke="rgb(103,103,113)" stroke-width="2.9" opacity="0.34"/><circle cx="734" cy="1843.8" r="1139.4" fill="none" stroke="rgb(103,103,113)" stroke-width="2.6" opacity="0.32"/><circle cx="734" cy="1843.8" r="1199.9" fill="none" stroke="rgb(103,103,113)" stroke-width="2.4" opacity="0.29"/><circle cx="734" cy="1843.8" r="1260.3" fill="none" stroke="rgb(103,103,113)" stroke-width="1.6" opacity="0.27"/><circle cx="734" cy="1843.8" r="1320.8" fill="none" stroke="rgb(103,103,113)" stroke-width="3.0" opacity="0.25"/><circle cx="734" cy="1843.8" r="1381.2" fill="none" stroke="rgb(103,103,113)" stroke-width="1.5" opacity="0.22"/></g>
<path d="M 643 -50 L 1902.7 -50 L 2422.3 850 L 1162.6 850 Z" fill="rgb(181,181,187)" opacity="0.37"/>
<path d="M 1406.6 -50 L 2379.5 -50 L 3212.3 850 L 2239.4 850 Z" fill="rgb(174,174,180)" opacity="0.21"/>
<circle cx="1067" cy="776" r="7.1" fill="rgb(105,105,115)" opacity="0.26"/>
<circle cx="1067" cy="679" r="6.6" fill="rgb(105,105,115)" opacity="0.27"/>
<circle cx="1940" cy="582" r="3.9" fill="rgb(105,105,115)" opacity="0.45"/>
<circle cx="2134" cy="485" r="3.3" fill="rgb(105,105,115)" opacity="0.27"/>
<circle cx="1649" cy="194" r="5.9" fill="rgb(105,105,115)" opacity="0.49"/>
<circle cx="485" cy="582" r="4.6" fill="rgb(105,105,115)" opacity="0.32"/>
<circle cx="388" cy="776" r="4.1" fill="rgb(105,105,115)" opacity="0.29"/>
</svg>
