<svg xmlns="http://www.w3.org/2000/svg" viewBox="0 0 2400 800" width="2400" height="800" preserveAspectRatio="xMidYMid slice" role="presentation">
<rect width="2400" height="800" fill="rgb(244,244,246)"/>
<path d="M 0 0 V 800 M 108 0 V 800 M 216 0 V 800 M 324 0 V 800 M 432 0 V 800 M 540 0 V 800 M 648 0 V 800 M 756 0 V 800 M 864 0 V 800 M 972 0 V 800 M 1080 0 V 800 M 1188 0 V 800 M 1296 0 V 800 M 1404 0 V 800 M 1512 0 V 800 M 1620 0 V 800 M 1728 0 V 800 M 1836 0 V 800 M 1944 0 V 800 M 2052 0 V 800 M 2160 0 V 800 M 2268 0 V 800 M 2376 0 V 800 M 0 0 H 2400 M 0 108 H 2400 M 0 216 H 2400 M 0 324 H 2400 M 0 432 H 2400 M 0 540 H 2400 M 0 648 H 2400 M 0 756 H 2400" fill="none" stroke="rgb(120,120,130)" stroke-width="1" opacity="0.24"/>
<g><circle cx="2089" cy="1215.7" r="163.7" fill="none" stroke="rgb(92,92,102)" stroke-width="1.9" opacity="0.65"/><circle cx="2089" cy="1215.7" r="203.9" fill="none" stroke="rgb(92,92,102)" stroke-width="3.0" opacity="0.62"/><circle cx="2089" cy="1215.7" r="244.1" fill="none" stroke="rgb(92,92,102)" stroke-width="2.1" opacity="0.59"/><circle cx="2089" cy="1215.7" r="284.2" fill="none" stroke="rgb(92,92,102)" stroke-width="1.4" opacity="0.55"/><circle cx="2089" cy="1215.7" r="324.4" fill="none" stroke="rgb(92,92,102)" stroke-width="3.2" opacity="0.52"/><circle cx="2089" cy="1215.7" r="364.6" fill="none" stroke="rgb(92,92,102)" stroke-width="1.4" opacity="0.49"/><circle cx="2089" cy="1215.7" r="404.8" fill="none" stroke="rgb(92,92,102)" stroke-width="1.7" opacity="0.46"/><circle cx="2089" cy="1215.7" r="445" fill="none" stroke="rgb(92,92,102)" stroke-width="1.9" opacity="0.43"/><circle cx="2089" cy="1215.7" r="485.2" fill="none" stroke="rgb(92,92,102)" stroke-width="1.8" opacity="0.39"/><circle cx="2089" cy="1215.7" r="525.3" fill="none" stroke="rgb(92,92,102)" stroke-width="1.6" opacity="0.36"/><circle cx="2089" cy="1215.7" r="565.5" fill="none" stroke="rgb(92,92,102)" stroke-width="1.5" opacity="0.33"/><circle cx="2089" cy="1215.7" r="605.7" fill="none" stroke="rgb(92,92,102)" stroke-width="1.7" opacity="0.30"/><circle cx="2089" cy="1215.7" r="645.9" fill="none" stroke="rgb(92,92,102)" stroke-width="3.3" opacity="0.26"/><circle cx="2089" cy="1215.7" r="686.1" fill="none" stroke="rgb(92,92,102)" stroke-width="3.3" opacity="0.23"/></g>
<g><circle cx="404" cy="1286.5" r="198.8" fill="none" stroke="rgb(77,77,87)" stroke-width="2.9" opacity="0.65"/><circle cx="404" cy="1286.5" r="271.1" fill="none" stroke="rgb(77,77,87)" stroke-width="2.8" opacity="0.60"/><circle cx="404" cy="1286.5" r="343.3" fill="none" stroke="rgb(77,77,87)" stroke-width="3.1" opacity="0.56"/><circle cx="404" cy="1286.5" r="415.6" fill="none" stroke="rgb(77,77,87)" stroke-width="3.1" opacity="0.52"/><circle cx="404" cy="1286.5" r="487.9" fill="none" stroke="rgb(77,77,87)" stroke-width="1.6" opacity="0.47"/><circle cx="404" cy="1286.5" r="560.2" fill="none" stroke="rgb(77,77,87)" stroke-width="1.4" opacity="0.43"/><circle cx="404" cy="1286.5" r="632.5" fill="none" stroke="rgb(77,77,87)" stroke-width="2.1" opacity="0.38"/><circle cx="404" cy="1286.5" r="704.8" fill="none" stroke="rgb(77,77,87)" stroke-width="2.3" opacity="0.34"/><circle cx="404" cy="1286.5" r="777.1" fill="none" stroke="rgb(77,77,87)" stroke-width="2.9" opacity="0.29"/><circle cx="404" cy="1286.5" r="849.4" fill="none" stroke="rgb(77,77,87)" stroke-width="2.6" opacity="0.24"/></g>
<path d="M 70.8 -50 L 747.4 -50 L 173.7 850 L -502.8 850 Z" fill="rgb(149,149,155)" opacity="0.18"/>
<path d="M 644.8 -50 L 1525.3 -50 L 992.6 850 L 112.1 850 Z" fill="rgb(131,131,137)" opacity="0.32"/>
<path d="M 2368.1 -50 L 3633.4 -50 L 4321.9 850 L 3056.6 850 Z" fill="rgb(143,143,149)" opacity="0.18"/>
<circle cx="108" cy="108" r="5.8" fill="rgb(105,105,115)" opacity="0.51"/>
<circle cx="324" cy="108" r="4.2" fill="rgb(105,105,115)" opacity="0.47"/>
<circle cx="1620" cy="756" r="3.3" fill="rgb(105,105,115)" opacity="0.39"/>
<circle cx="216" cy="756" r="6.9" fill="rgb(105,105,115)" opacity="0.41"/>
<circle cx="1836" cy="540" r="7.0" fill="rgb(105,105,115)" opacity="0.33"/>
<circle cx="1728" cy="324" r="4.2" fill="rgb(105,105,115)" opacity="0.44"/>
<circle cx="1512" cy="432" r="4.4" fill="rgb(105,105,115)" opacity="0.24"/>
</svg>
