<svg xmlns="http://www.w3.org/2000/svg" viewBox="0 0 2400 800" width="2400" height="800" preserveAspectRatio="xMidYMid slice" role="presentation">
<rect width="2400" height="800" fill="rgb(244,244,246)"/>
<path d="M 0 0 V 800 M 98 0 V 800 M 196 0 V 800 M 294 0 V 800 M 392 0 V 800 M 490 0 V 800 M 588 0 V 800 M 686 0 V 800 M 784 0 V 800 M 882 0 V 800 M 980 0 V 800 M 1078 0 V 800 M 1176 0 V 800 M 1274 0 V 800 M 1372 0 V 800 M 1470 0 V 800 M 1568 0 V 800 M 1666 0 V 800 M 1764 0 V 800 M 1862 0 V 800 M 1960 0 V 800 M 2058 0 V 800 M 2156 0 V 800 M 2254 0 V 800 M 2352 0 V 800 M 0 0 H 2400 M 0 98 H 2400 M 0 196 H 2400 M 0 294 H 2400 M 0 392 H 2400 M 0 490 H 2400 M 0 588 H 2400 M 0 686 H 2400 M 0 784 H 2400" fill="none" stroke="rgb(120,120,130)" stroke-width="1" opacity="0.24"/>
<g><circle cx="2344.4" cy="1469.1" r="335.5" fill="none" stroke="rgb(93,93,103)" stroke-width="3.0" opacity="0.65"/><circle cx="2344.4" cy="1469.1" r="396.1" fill="none" stroke="rgb(93,93,103)" stroke-width="2.7" opacity="0.63"/><circle cx="2344.4" cy="1469.1" r="456.7" fill="none" stroke="rgb(93,93,103)" stroke-width="2.1" opacity="0.60"/><circle cx="2344.4" cy="1469.1" r="517.3" fill="none" stroke="rgb(93,93,103)" stroke-width="1.5" opacity="0.58"/><circle cx="2344.4" cy="1469.1" r="577.9" fill="none" stroke="rgb(93,93,103)" stroke-width="2.3" opacity="0.56"/><circle cx="2344.4" cy="1469.1" r="638.5" fill="none" stroke="rgb(93,93,103)" stroke-width="2.4" opacity="0.53"/><circle cx="2344.4" cy="1469.1" r="699.1" fill="none" stroke="rgb(93,93,103)" stroke-width="2.3" opacity="0.51"/><circle cx="2344.4" cy="1469.1" r="759.7" fill="none" stroke="rgb(93,93,103)" stroke-width="2.5" opacity="0.48"/><circle cx="2344.4" cy="1469.1" r="820.3" fill="none" stroke="rgb(93,93,103)" stroke-width="2.0" opacity="0.46"/><circle cx="2344.4" cy="1469.1" r="880.9" fill="none" stroke="rgb(93,93,103)" stroke-width="1.8" opacity="0.44"/><circle cx="2344.4" cy="1469.1" r="941.5" fill="none" stroke="rgb(93,93,103)" stroke-width="1.8" opacity="0.41"/><circle cx="2344.4" cy="1469.1" r="1002" fill="none" stroke="rgb(93,93,103)" stroke-width="3.1" opacity="0.39"/><circle cx="2344.4" cy="1469.1" r="1062.6" fill="none" stroke="rgb(93,93,103)" stroke-width="3.1" opacity="0.37"/><circle cx="2344.4" cy="1469.1" r="1123.2" fill="none" stroke="rgb(93,93,103)" stroke-width="2.0" opacity="0.34"/><circle cx="2344.4" cy="1469.1" r="1183.8" fill="none" stroke="rgb(93,93,103)" stroke-width="2.1" opacity="0.32"/><circle cx="2344.4" cy="1469.1" r="1244.4" fill="none" stroke="rgb(93,93,103)" stroke-width="2.6" opacity="0.29"/><circle cx="2344.4" cy="1469.1" r="1305" fill="none" stroke="rgb(93,93,103)" stroke-width="1.9" opacity="0.27"/><circle cx="2344.4" cy="1469.1" r="1365.6" fill="none" stroke="rgb(93,93,103)" stroke-width="2.4" opacity="0.25"/><circle cx="2344.4" cy="1469.1" r="1426.2" fill="none" stroke="rgb(93,93,103)" stroke-width="2.7" opacity="0.22"/></g>
<g><circle cx="2142.9" cy="-704.2" r="378.3" fill="none" stroke="rgb(94,94,104)" stroke-width="2.8" opacity="0.65"/><circle cx="2142.9" cy="-704.2" r="406.3" fill="none" stroke="rgb(94,94,104)" stroke-width="3.2" opacity="0.63"/><circle cx="2142.9" cy="-704.2" r="434.2" fill="none" stroke="rgb(94,94,104)" stroke-width="1.7" opacity="0.60"/><circle cx="2142.9" cy="-704.2" r="462.2" fill="none" stroke="rgb(94,94,104)" stroke-width="2.5" opacity="0.57"/><circle cx="2142.9" cy="-704.2" r="490.2" fill="none" stroke="rgb(94,94,104)" stroke-width="3.2" opacity="0.55"/><circle cx="2142.9" cy="-704.2" r="518.1" fill="none" stroke="rgb(94,94,104)" stroke-width="1.8" opacity="0.53"/><circle cx="2142.9" cy="-704.2" r="546.1" fill="none" stroke="rgb(94,94,104)" stroke-width="2.1" opacity="0.50"/><circle cx="2142.9" cy="-704.2" r="574.1" fill="none" stroke="rgb(94,94,104)" stroke-width="2.6" opacity="0.48"/><circle cx="2142.9" cy="-704.2" r="602" fill="none" stroke="rgb(94,94,104)" stroke-width="1.9" opacity="0.45"/><circle cx="2142.9" cy="-704.2" r="630" fill="none" stroke="rgb(94,94,104)" stroke-width="2.5" opacity="0.43"/><circle cx="2142.9" cy="-704.2" r="658" fill="none" stroke="rgb(94,94,104)" stroke-width="2.8" opacity="0.40"/><circle cx="2142.9" cy="-704.2" r="685.9" fill="none" stroke="rgb(94,94,104)" stroke-width="2.6" opacity="0.38"/><circle cx="2142.9" cy="-704.2" r="713.9" fill="none" stroke="rgb(94,94,104)" stroke-width="2.2" opacity="0.35"/><circle cx="2142.9" cy="-704.2" r="741.9" fill="none" stroke="rgb(94,94,104)" stroke-width="2.9" opacity="0.33"/><circle cx="2142.9" cy="-704.2" r="769.8" fill="none" stroke="rgb(94,94,104)" stroke-width="2.1" opacity="0.30"/><circle cx="2142.9" cy="-704.2" r="797.8" fill="none" stroke="rgb(94,94,104)" stroke-width="2.2" opacity="0.28"/><circle cx="2142.9" cy="-704.2" r="825.8" fill="none" stroke="rgb(94,94,104)" stroke-width="2.2" opacity="0.25"/><circle cx="2142.9" cy="-704.2" r="853.7" fill="none" stroke="rgb(94,94,104)" stroke-width="2.0" opacity="0.23"/></g>
<path d="M 202.3 -50 L 1366.3 -50 L 2237.3 850 L 1073.3 850 Z" fill="rgb(170,170,176)" opacity="0.26"/>
<path d="M 2392.8 -50 L 3633 -50 L 3365.5 850 L 2125.3 850 Z" fill="rgb(182,182,188)" opacity="0.22"/>
<circle cx="2156" cy="0" r="3.0" fill="rgb(105,105,115)" opacity="0.25"/>
<circle cx="98" cy="0" r="3.0" fill="rgb(105,105,115)" opacity="0.50"/>
<circle cx="490" cy="392" r="3.0" fill="rgb(105,105,115)" opacity="0.25"/>
<circle cx="1372" cy="0" r="3.6" fill="rgb(105,105,115)" opacity="0.34"/>
<circle cx="196" cy="98" r="3.3" fill="rgb(105,105,115)" opacity="0.51"/>
<circle cx="2254" cy="392" r="6.6" fill="rgb(105,105,115)" opacity="0.25"/>
<circle cx="0" cy="490" r="3.2" fill="rgb(105,105,115)" opacity="0.48"/>
</svg>
