<?xml version="1.0" encoding="utf-8"?><svg xmlns="http://www.w3.org/2000/svg" xmlns:xlink="http://www.w3.org/1999/xlink" data-d2-version="v0.9.0" preserveAspectRatio="xMinYMin meet" viewBox="0 0 649 711"><svg class="d2-1743472752 d2-svg" width="649" height="711" viewBox="-5 -5 649 711"><rect x="-5" y="-5" width="649" height="711" rx="0" fill="#FFFFFF" class=" fill-N7" stroke-width="0" /><g class="b3V0c2lkZQ== zone"><g class="shape" ><rect x="12" y="12" width="615" height="151" rx="12" stroke="#D2D9E1" fill="#FCFDFE" style="stroke-width:2;" /></g><text x="51" y="45" fill="#3A4655" class="text" style="text-anchor:middle;font-size:28px">社外</text></g><g class="b2ZmaWNl zone"><g class="shape" ><rect x="82" y="274" width="393" height="415" rx="12" stroke="#D2D9E1" fill="#FCFDFE" style="stroke-width:2;" /></g><text x="156.5" y="307" fill="#3A4655" class="text" style="text-anchor:middle;font-size:28px">オフィス</text></g><g class="b3V0c2lkZS5yZW1vdGU= client"><g class="shape" ><rect x="44" y="81" width="185" height="70" rx="8" stroke="#94A0AE" fill="#EEF1F4" style="stroke-width:2;" /></g><text x="136.5" y="119.5" fill="#3D4856" class="text-bold" style="text-anchor:middle;font-size:16px">社外で働く社員</text></g><g class="b3V0c2lkZS5zZXJ2aWNlcw== urgent"><g class="shape" ><rect x="249" y="65" width="346" height="86" rx="8" stroke="#E59A3C" fill="#FFF1DE" style="stroke-width:2;" /></g><text x="422" y="103.5" fill="#8A5A14" class="text-bold" style="text-anchor:middle;font-size:16px"><tspan x="422" dy="0">銀行・取引先・クラウドサービス</tspan><tspan x="422" dy="20.5">① 会社のIPからのみ許可</tspan></text></g><g class="b2ZmaWNlLmxpbmU= urgent"><g class="shape" ><rect x="178" y="327" width="202" height="86" rx="8" stroke="#E59A3C" fill="#FFF1DE" style="stroke-width:2;" /></g><text x="279" y="365.5" fill="#8A5A14" class="text-bold" style="text-anchor:middle;font-size:16px"><tspan x="279" dy="0">PPPoE回線</tspan><tspan x="279" dy="20.5">固定IPv4アドレス</tspan></text></g><g class="b2ZmaWNlLmZ3 urgent"><g class="shape" ><rect x="126" y="443" width="306" height="118" rx="8" stroke="#E59A3C" fill="#FFF1DE" style="stroke-width:2;" /></g><text x="279" y="481.5" fill="#8A5A14" class="text-bold" style="text-anchor:middle;font-size:16px"><tspan x="279" dy="0">ファイアウォール／ルーター</tspan><tspan x="279" dy="18.25">② リモート用VPN</tspan><tspan x="279" dy="18.25">③ ポート転送</tspan><tspan x="279" dy="18.25">④ IPoEに対応？</tspan></text></g><g class="b2ZmaWNlLmxhbg== client"><g class="shape" ><rect x="114" y="591" width="329" height="86" rx="8" stroke="#94A0AE" fill="#EEF1F4" style="stroke-width:2;" /></g><text x="278.5" y="629.5" fill="#3D4856" class="text-bold" style="text-anchor:middle;font-size:16px"><tspan x="278.5" dy="0">サーバー（AD・ファイル共有）</tspan><tspan x="278.5" dy="20.5">PC・プリンター・Wi-Fi</tspan></text></g><g class="b2ZmaWNlLihsaW5lIC0mZ3Q7IGZ3KVswXQ=="><marker id="mk-d2-1743472752-3488378134" markerWidth="10" markerHeight="12" refX="7" refY="6" viewBox="0 0 10 12" orient="auto" markerUnits="userSpaceOnUse"> <polygon points="0,0 10,6 0,12" fill="#0D32B2" class="connection fill-B1" stroke-width="2" /> </marker><path d="M 279.25 415 L 279.25 439" stroke="#0D32B2" fill="none" class="connection stroke-B1" style="stroke-width:2;" marker-end="url(#mk-d2-1743472752-3488378134)" mask="url(#d2-1743472752)" /></g><g class="b2ZmaWNlLihmdyAtJmd0OyBsYW4pWzBd"><path d="M 279.25 563 L 279.25 587" stroke="#0D32B2" fill="none" class="connection stroke-B1" style="stroke-width:2;" marker-end="url(#mk-d2-1743472752-3488378134)" mask="url(#d2-1743472752)" /></g><g class="KG91dHNpZGUucmVtb3RlIC0mZ3Q7IG9mZmljZS5saW5lKVswXQ=="><marker id="mk-d2-1743472752-2177206569" markerWidth="10" markerHeight="12" refX="7" refY="6" viewBox="0 0 10 12" orient="auto" markerUnits="userSpaceOnUse"> <polygon points="0,0 10,6 0,12" fill="#0D32B2" class="connection fill-B2" stroke-width="2" /> </marker><path d="M 155.666 153 L 155.666 239 S 155.666 249 165.666 249 L 235.582993 249 S 245.582993 249 245.582993 259 L 245.582993 323" stroke="#0D32B2" fill="none" class="connection stroke-B2" style="stroke-width:2;stroke-dasharray:6.000000,5.919384;" marker-end="url(#mk-d2-1743472752-2177206569)" mask="url(#d2-1743472752)" /><text x="191" y="255" fill="#676C7E" class="text-italic fill-N2" style="text-anchor:middle;font-size:16px">固定IPへVPN接続</text></g><g class="KG91dHNpZGUuc2VydmljZXMgLSZndDsgb2ZmaWNlLmxpbmUpWzBd"><path d="M 402.833008 153 L 402.833008 239 S 402.833008 249 392.833008 249 L 322.915985 249 S 312.915985 249 312.915985 259 L 312.915985 323" stroke="#0D32B2" fill="none" class="connection stroke-B2" style="stroke-width:2;stroke-dasharray:6.000000,5.919384;" marker-end="url(#mk-d2-1743472752-2177206569)" mask="url(#d2-1743472752)" /><text x="367.5" y="255" fill="#676C7E" class="text-italic fill-N2" style="text-anchor:middle;font-size:16px">固定IPを信頼</text></g><mask id="d2-1743472752" maskUnits="userSpaceOnUse" x="-5" y="-5" width="649" height="711">
<rect x="-5" y="-5" width="649" height="711" fill="white"></rect>
<rect x="121" y="239" width="140" height="21" fill="black"></rect>
<rect x="311" y="239" width="113" height="21" fill="black"></rect>
</mask></svg></svg>
